<svg width="45" height="45" viewBox="0 0 45 45" fill="none" xmlns="http://www.w3.org/2000/svg">
<circle cx="22.5" cy="22.5" r="22.5" fill="white"/>
<path d="M27.4445 21.4806C27.4445 22.7203 26.952 23.9093 26.0754 24.7859C25.1987 25.6626 24.0097 26.1551 22.77 26.1551C21.5302 26.1551 20.3412 25.6626 19.4646 24.7859C18.5879 23.9093 18.0955 22.7203 18.0955 21.4806V14.9362C18.0955 13.6965 18.5879 12.5075 19.4646 11.6308C20.3412 10.7542 21.5302 10.2617 22.77 10.2617C24.0097 10.2617 25.1987 10.7542 26.0754 11.6308C26.952 12.5075 27.4445 13.6965 27.4445 14.9362V21.4806Z" stroke="black" stroke-width="2" stroke-linecap="round" stroke-linejoin="round"/>
<path d="M32.119 22.416C32.1214 23.5217 31.9054 24.6169 31.4836 25.6389C31.0616 26.6608 30.4419 27.5894 29.66 28.3712C28.8782 29.1529 27.9497 29.7728 26.9277 30.1946C25.9057 30.6166 24.8105 30.8326 23.7049 30.8301H21.835C20.7294 30.8326 19.6342 30.6166 18.6122 30.1946C17.5902 29.7728 16.6617 29.1529 15.8799 28.3712C15.098 27.5894 14.4784 26.6608 14.0564 25.6389C13.6344 24.6169 13.4185 23.5217 13.4209 22.416" stroke="black" stroke-width="2" stroke-linecap="round" stroke-linejoin="round"/>
<path d="M22.7698 30.8301V34.5697" stroke="black" stroke-width="2" stroke-linecap="round" stroke-linejoin="round"/>
</svg>
