<svg width="115" height="115" viewBox="0 0 115 115" fill="none" xmlns="http://www.w3.org/2000/svg">
<circle cx="57.5" cy="57.5" r="57.5" fill="white"/>
<path d="M79.8235 48.5414V34.5882C79.8235 30.9496 76.8739 28 73.2353 28H43.5882C39.9497 28 37 30.9497 37 34.5882V70.8235" stroke="black" stroke-width="4.82066" stroke-linecap="round"/>
<path d="M79.8235 66.7536V80.7067C79.8235 84.3453 76.8739 87.2949 73.2353 87.2949H43.5882C39.9497 87.2949 37 84.3453 37 80.7067V44.4714" stroke="black" stroke-width="4.82066" stroke-linecap="round"/>
<path d="M56.7646 55.7202C55.6997 55.7202 54.8364 56.5835 54.8364 57.6484C54.8364 58.7134 55.6997 59.5767 56.7646 59.5767V55.7202ZM92.9999 57.6484L73.7173 46.5156V68.7813L92.9999 57.6484ZM56.7646 59.5767H75.6456V55.7202H56.7646V59.5767Z" fill="black"/>
<path d="M94.2353 59.7861L97.9412 57.6465L94.2353 55.5069L74.9526 44.3741L71.2468 42.2345V46.5137V53.2477H56.7647C54.3353 53.2477 52.3658 55.2171 52.3658 57.6465C52.3658 60.0759 54.3353 62.0454 56.7647 62.0454H71.2468V68.7793V73.0585L74.9526 70.9189L94.2353 59.7861Z" fill="black" stroke="white" stroke-width="4.94118"/>
</svg>
