<svg width="115" height="115" viewBox="0 0 115 115" fill="none" xmlns="http://www.w3.org/2000/svg">
<circle cx="57.5" cy="57.5" r="57.5" fill="white"/>
<mask id="path-2-outside-1_694_12094" maskUnits="userSpaceOnUse" x="43" y="16" width="32" height="79" fill="black">
<rect fill="white" x="43" y="16" width="32" height="79"/>
<path d="M58.852 31.498C57.2227 31.498 55.844 30.9967 54.716 29.994C53.6507 28.9287 53.118 27.5187 53.118 25.764C53.118 24.0093 53.6507 22.6307 54.716 21.628C55.844 20.6253 57.2227 20.124 58.852 20.124C60.4813 20.124 61.8287 20.6253 62.894 21.628C64.022 22.6307 64.586 24.0093 64.586 25.764C64.586 27.5187 64.022 28.9287 62.894 29.994C61.8287 30.9967 60.4813 31.498 58.852 31.498ZM63.27 42.684V84.232C63.27 85.6107 63.9593 86.5193 65.338 86.958C66.7793 87.3967 68.5653 87.616 70.696 87.616H70.884V91H47.29V87.616H47.478C49.6087 87.616 51.3633 87.3967 52.742 86.958C54.1833 86.5193 54.904 85.6107 54.904 84.232V50.486C54.904 49.1073 54.3713 48.1673 53.306 47.666C52.2407 47.1647 50.58 46.6947 48.324 46.256L47.29 46.068V42.684H63.27Z"/>
</mask>
<path d="M54.716 29.994L51.8876 32.8224C51.943 32.8778 52 32.9316 52.0585 32.9836L54.716 29.994ZM54.716 21.628L52.0585 18.6384C52.0302 18.6636 52.0022 18.6892 51.9745 18.7152L54.716 21.628ZM62.894 21.628L60.1525 24.5408C60.1802 24.5668 60.2082 24.5924 60.2365 24.6176L62.894 21.628ZM62.894 29.994L65.6355 32.9068L65.6405 32.9021L62.894 29.994ZM63.27 42.684H67.27C67.27 40.4749 65.4791 38.684 63.27 38.684V42.684ZM65.338 86.958L64.1252 90.7697C64.1412 90.7748 64.1573 90.7798 64.1734 90.7847L65.338 86.958ZM70.884 87.616H74.884C74.884 85.4069 73.0931 83.616 70.884 83.616V87.616ZM70.884 91V95C73.0931 95 74.884 93.2091 74.884 91H70.884ZM47.29 91H43.29C43.29 93.2091 45.0809 95 47.29 95V91ZM47.29 87.616V83.616C45.0809 83.616 43.29 85.4069 43.29 87.616H47.29ZM52.742 86.958L51.5774 83.1313C51.5613 83.1362 51.5452 83.1412 51.5292 83.1463L52.742 86.958ZM53.306 47.666L55.0092 44.0467L55.0092 44.0467L53.306 47.666ZM48.324 46.256L49.0875 42.3295C49.0715 42.3264 49.0555 42.3234 49.0395 42.3205L48.324 46.256ZM47.29 46.068H43.29C43.29 48.0011 44.6725 49.6577 46.5745 50.0035L47.29 46.068ZM47.29 42.684V38.684C45.0809 38.684 43.29 40.4749 43.29 42.684H47.29ZM58.852 27.498C58.1177 27.498 57.7084 27.3021 57.3735 27.0044L52.0585 32.9836C53.9796 34.6912 56.3276 35.498 58.852 35.498V27.498ZM57.5444 27.1656C57.3529 26.974 57.118 26.6465 57.118 25.764H49.118C49.118 28.3908 49.9484 30.8833 51.8876 32.8224L57.5444 27.1656ZM57.118 25.764C57.118 24.8745 57.3534 24.6388 57.4575 24.5408L51.9745 18.7152C49.948 20.6226 49.118 23.1441 49.118 25.764H57.118ZM57.3735 24.6176C57.7084 24.3199 58.1177 24.124 58.852 24.124V16.124C56.3276 16.124 53.9796 16.9307 52.0585 18.6384L57.3735 24.6176ZM58.852 24.124C59.5881 24.124 59.9159 24.3181 60.1525 24.5408L65.6355 18.7152C63.7414 16.9326 61.3746 16.124 58.852 16.124V24.124ZM60.2365 24.6176C60.3687 24.7351 60.586 24.9471 60.586 25.764H68.586C68.586 23.0715 67.6754 20.5263 65.5515 18.6384L60.2365 24.6176ZM60.586 25.764C60.586 26.5766 60.3671 26.8786 60.1475 27.0859L65.6405 32.9021C67.6769 30.9788 68.586 28.4607 68.586 25.764H60.586ZM60.1525 27.0812C59.9159 27.3039 59.5881 27.498 58.852 27.498V35.498C61.3746 35.498 63.7414 34.6894 65.6355 32.9068L60.1525 27.0812ZM59.27 42.684V84.232H67.27V42.684H59.27ZM59.27 84.232C59.27 85.6071 59.625 87.0795 60.6002 88.365C61.5626 89.6337 62.8615 90.3676 64.1252 90.7697L66.5508 83.1463C66.4358 83.1097 66.7007 83.17 66.9738 83.53C67.2597 83.9069 67.27 84.2356 67.27 84.232H59.27ZM64.1734 90.7847C66.1126 91.3749 68.3201 91.616 70.696 91.616V83.616C68.8105 83.616 67.4461 83.4184 66.5026 83.1313L64.1734 90.7847ZM70.696 91.616H70.884V83.616H70.696V91.616ZM66.884 87.616V91H74.884V87.616H66.884ZM70.884 87H47.29V95H70.884V87ZM51.29 91V87.616H43.29V91H51.29ZM47.29 91.616H47.478V83.616H47.29V91.616ZM47.478 91.616C49.8448 91.616 52.046 91.3771 53.9548 90.7697L51.5292 83.1463C50.6807 83.4163 49.3725 83.616 47.478 83.616V91.616ZM53.9066 90.7847C55.1739 90.399 56.5006 89.6901 57.4975 88.4331C58.5195 87.1445 58.904 85.6469 58.904 84.232H50.904C50.904 84.2287 50.9045 84.1321 50.9538 83.9759C51.0054 83.812 51.0959 83.6304 51.2295 83.4619C51.5058 83.1136 51.7514 83.0783 51.5774 83.1313L53.9066 90.7847ZM58.904 84.232V50.486H50.904V84.232H58.904ZM58.904 50.486C58.904 49.2924 58.6733 47.9904 57.9846 46.7749C57.2737 45.5204 56.2196 44.6163 55.0092 44.0467L51.6028 51.2853C51.547 51.259 51.444 51.201 51.326 51.0945C51.2056 50.9859 51.1021 50.8561 51.0244 50.719C50.8683 50.4436 50.904 50.3009 50.904 50.486H58.904ZM55.0092 44.0467C53.4808 43.3275 51.4224 42.7835 49.0875 42.3295L47.5605 50.1825C49.7376 50.6058 51.0005 51.0018 51.6028 51.2853L55.0092 44.0467ZM49.0395 42.3205L48.0055 42.1325L46.5745 50.0035L47.6085 50.1915L49.0395 42.3205ZM51.29 46.068V42.684H43.29V46.068H51.29ZM47.29 46.684H63.27V38.684H47.29V46.684Z" fill="black" mask="url(#path-2-outside-1_694_12094)"/>
</svg>
