<svg width="2168" height="2878" viewBox="0 0 2168 2878" fill="none" xmlns="http://www.w3.org/2000/svg">
<g filter="url(#filter0_d_511_14372)">
<rect x="212" y="181" width="1744" height="2454.06" rx="124.571" fill="black"/>
<rect x="233.8" y="202.8" width="1700.4" height="2410.46" rx="102.771" stroke="white" stroke-width="43.6"/>
</g>
<path d="M1818.97 1727.2L1121.81 2311.17V498.657L1299.39 818.189C1299.39 818.189 1380.51 1493.98 1419.97 1664.76C1448.76 1789.39 1818.97 1727.2 1818.97 1727.2Z" fill="#4235FB"/>
<path d="M1818.97 1727.2L1121.81 2311.17V498.657L1299.39 818.189C1299.39 818.189 1380.51 1493.98 1419.97 1664.76C1448.76 1789.39 1818.97 1727.2 1818.97 1727.2Z" fill="url(#paint0_linear_511_14372)" fill-opacity="0.2"/>
<path d="M342.8 1082.63L1039.96 498.657V2311.17L862.381 1991.64C862.381 1991.64 781.265 1315.85 741.803 1145.07C713.007 1020.44 342.8 1082.63 342.8 1082.63Z" fill="#FC3A87"/>
<path d="M342.8 1082.63L1039.96 498.657V2311.17L862.381 1991.64C862.381 1991.64 781.265 1315.85 741.803 1145.07C713.007 1020.44 342.8 1082.63 342.8 1082.63Z" fill="url(#paint1_linear_511_14372)" fill-opacity="0.2"/>
<defs>
<filter id="filter0_d_511_14372" x="0.228561" y="0.371422" width="2167.54" height="2877.6" filterUnits="userSpaceOnUse" color-interpolation-filters="sRGB">
<feFlood flood-opacity="0" result="BackgroundImageFix"/>
<feColorMatrix in="SourceAlpha" type="matrix" values="0 0 0 0 0 0 0 0 0 0 0 0 0 0 0 0 0 0 127 0" result="hardAlpha"/>
<feOffset dy="31.1429"/>
<feGaussianBlur stdDeviation="105.886"/>
<feColorMatrix type="matrix" values="0 0 0 0 0 0 0 0 0 0 0 0 0 0 0 0 0 0 0.1 0"/>
<feBlend mode="normal" in2="BackgroundImageFix" result="effect1_dropShadow_511_14372"/>
<feBlend mode="normal" in="SourceGraphic" in2="effect1_dropShadow_511_14372" result="shape"/>
</filter>
<linearGradient id="paint0_linear_511_14372" x1="1470.39" y1="498.657" x2="1470.39" y2="2311.17" gradientUnits="userSpaceOnUse">
<stop stop-opacity="0"/>
<stop offset="1"/>
</linearGradient>
<linearGradient id="paint1_linear_511_14372" x1="691.38" y1="498.657" x2="691.38" y2="2311.17" gradientUnits="userSpaceOnUse">
<stop stop-opacity="0"/>
<stop offset="1"/>
</linearGradient>
</defs>
</svg>
