<svg width="1744" height="2454" viewBox="0 0 1744 2454" fill="none" xmlns="http://www.w3.org/2000/svg">
<rect x="3.11421" y="3.11421" width="1737.73" height="2447.77" rx="121.454" fill="url(#paint0_linear_506_14343)" stroke="#D2D2D2" stroke-width="6.22843"/>
<rect x="65.3987" y="84.0838" width="1613.16" height="2285.83" rx="108.997" stroke="#FC3A87" stroke-width="31.1421" stroke-linecap="round"/>
<path d="M423.533 388.321L276.457 510.731V130.797L313.919 197.776C313.919 197.776 331.032 339.433 339.357 375.233C345.432 401.356 423.533 388.321 423.533 388.321Z" fill="#4235FB"/>
<path d="M423.533 388.321L276.457 510.731V130.797L313.919 197.776C313.919 197.776 331.032 339.433 339.357 375.233C345.432 401.356 423.533 388.321 423.533 388.321Z" fill="url(#paint1_linear_506_14343)" fill-opacity="0.2"/>
<path d="M112.112 253.207L259.188 130.797V510.731L221.726 443.752C221.726 443.752 204.613 302.094 196.288 266.295C190.213 240.172 112.112 253.207 112.112 253.207Z" fill="#FC3A87"/>
<path d="M112.112 253.207L259.188 130.797V510.731L221.726 443.752C221.726 443.752 204.613 302.094 196.288 266.295C190.213 240.172 112.112 253.207 112.112 253.207Z" fill="url(#paint2_linear_506_14343)" fill-opacity="0.2"/>
<path d="M1320.43 2200.79L1467.5 2323.2V1943.27L1430.04 2010.25C1430.04 2010.25 1412.93 2151.91 1404.6 2187.7C1398.53 2213.83 1320.43 2200.79 1320.43 2200.79Z" fill="#4235FB"/>
<path d="M1320.43 2200.79L1467.5 2323.2V1943.27L1430.04 2010.25C1430.04 2010.25 1412.93 2151.91 1404.6 2187.7C1398.53 2213.83 1320.43 2200.79 1320.43 2200.79Z" fill="url(#paint3_linear_506_14343)" fill-opacity="0.2"/>
<path d="M1631.85 2065.68L1484.77 1943.27V2323.2L1522.23 2256.22C1522.23 2256.22 1539.35 2114.57 1547.67 2078.77C1553.75 2052.64 1631.85 2065.68 1631.85 2065.68Z" fill="#FC3A87"/>
<path d="M1631.85 2065.68L1484.77 1943.27V2323.2L1522.23 2256.22C1522.23 2256.22 1539.35 2114.57 1547.67 2078.77C1553.75 2052.64 1631.85 2065.68 1631.85 2065.68Z" fill="url(#paint4_linear_506_14343)" fill-opacity="0.2"/>
<defs>
<linearGradient id="paint0_linear_506_14343" x1="871.98" y1="0" x2="871.98" y2="2454" gradientUnits="userSpaceOnUse">
<stop stop-color="white"/>
<stop offset="1" stop-color="#E6E6E6"/>
</linearGradient>
<linearGradient id="paint1_linear_506_14343" x1="349.995" y1="130.797" x2="349.995" y2="510.731" gradientUnits="userSpaceOnUse">
<stop stop-opacity="0"/>
<stop offset="1"/>
</linearGradient>
<linearGradient id="paint2_linear_506_14343" x1="185.65" y1="130.797" x2="185.65" y2="510.731" gradientUnits="userSpaceOnUse">
<stop stop-opacity="0"/>
<stop offset="1"/>
</linearGradient>
<linearGradient id="paint3_linear_506_14343" x1="1393.97" y1="1943.27" x2="1393.97" y2="2323.2" gradientUnits="userSpaceOnUse">
<stop stop-opacity="0"/>
<stop offset="1"/>
</linearGradient>
<linearGradient id="paint4_linear_506_14343" x1="1558.31" y1="1943.27" x2="1558.31" y2="2323.2" gradientUnits="userSpaceOnUse">
<stop stop-opacity="0"/>
<stop offset="1"/>
</linearGradient>
</defs>
</svg>
