<svg width="3248" height="2984" viewBox="0 0 3248 2984" fill="none" xmlns="http://www.w3.org/2000/svg">
<path d="M2960 1648C2960 2385.85 2361.85 2984 1624 2984C886.148 2984 288 2385.85 288 1648C288 910.148 886.148 312 1624 312C2361.85 312 2960 910.148 2960 1648Z" fill="#4235FB"/>
<path d="M2960 1648C2960 2385.85 2361.85 2984 1624 2984C886.148 2984 288 2385.85 288 1648C288 910.148 886.148 312 1624 312C2361.85 312 2960 910.148 2960 1648Z" fill="url(#paint0_linear_786_17813)"/>
<circle cx="1624" cy="1648" r="1264" stroke="black" stroke-width="144"/>
<path d="M1237.98 1450.86C1207.02 1373.8 1019.33 1266.08 792 1265.17" stroke="black" stroke-width="64" stroke-linecap="round"/>
<path d="M2008.56 1450.86C2039.52 1373.8 2227.21 1266.08 2454.55 1265.17" stroke="black" stroke-width="64" stroke-linecap="round"/>
<path d="M1521.17 1172.49L1512.22 1177.75C1497.82 1186.22 1490.61 1203.09 1494.44 1219.35C1499.57 1241.18 1522.38 1253.79 1544.37 1249.4C1546.92 1248.89 1549.47 1248.42 1552 1248C1576 1244 1584 1188 1584 1184C1584 1183.58 1583.67 1182.87 1583.09 1181.94C1570.39 1161.82 1541.68 1160.42 1521.17 1172.49Z" fill="black"/>
<path d="M1672 1217.36V1207.07C1672 1202.44 1673.21 1197.88 1675.51 1193.86C1682.52 1181.6 1697.89 1176.94 1710.52 1183.26L1747.94 1201.97C1754.76 1205.38 1757.82 1213.44 1754.99 1220.52C1753.13 1225.18 1749.01 1228.56 1744.08 1229.48L1697.2 1238.27C1691.34 1239.37 1685.28 1237.96 1680.51 1234.38C1675.15 1230.37 1672 1224.06 1672 1217.36Z" fill="black"/>
<g filter="url(#filter0_d_786_17813)">
<path d="M784 1028C720 1050.4 621.333 1064 580 1068L504 1020C578.667 992 729.6 935.2 736 932C742.4 928.8 944 962.667 1044 980L1512 1020L1880 980L2472 860L2656 960L2680 1056H2656L2604 1048L2496 1032L2464 1020L2404 1032L2424 1056L2448 1112L2436 1160L2388 1176L2332 1184L2172 1176L2088 1152L2012 1132L1912 1140L1868 1152L1880 1192V1228C1877.33 1237.33 1871.2 1257.6 1868 1264C1864.8 1270.4 1848 1282.67 1840 1288L1800 1304H1744L1708 1264L1676 1228L1620 1216L1556 1228L1548 1256L1512 1288L1484 1304H1432L1388 1272L1372 1216V1152L1284 1140L1220 1132L1188 1140L1112 1160L996 1184H856L820 1172L796 1140V1100L840 1040L784 1028Z" fill="black"/>
<path d="M784 1028C720 1050.4 621.333 1064 580 1068L504 1020C578.667 992 729.6 935.2 736 932C742.4 928.8 944 962.667 1044 980L1512 1020L1880 980L2472 860L2656 960L2680 1056H2656L2604 1048L2496 1032L2464 1020L2404 1032L2424 1056L2448 1112L2436 1160L2388 1176L2332 1184L2172 1176L2088 1152L2012 1132L1912 1140L1868 1152L1880 1192V1228C1877.33 1237.33 1871.2 1257.6 1868 1264C1864.8 1270.4 1848 1282.67 1840 1288L1800 1304H1744L1708 1264L1676 1228L1620 1216L1556 1228L1548 1256L1512 1288L1484 1304H1432L1388 1272L1372 1216V1152L1284 1140L1220 1132L1188 1140L1112 1160L996 1184H856L820 1172L796 1140V1100L840 1040L784 1028Z" stroke="black" stroke-width="8"/>
</g>
<mask id="path-7-outside-1_786_17813" maskUnits="userSpaceOnUse" x="-0.722661" y="-0.544469" width="3249" height="1320" fill="black">
<rect fill="white" x="-0.722661" y="-0.544469" width="3249" height="1320"/>
<path fill-rule="evenodd" clip-rule="evenodd" d="M1082.97 171.004C1118.41 117.138 1228.04 61.0756 1492.98 85.6892C1503.56 86.6727 1510.29 97.5721 1505.14 106.878C1468.22 173.696 1368.89 262.095 1187.48 243.175C1184.56 244.891 1181.41 246.344 1178.08 247.493C1142.52 259.744 1106.41 272.958 1070.36 287.009C1136.1 290.166 1214.23 303.294 1304.79 332.182C1313.67 335.013 1312.2 342.736 1301.13 347.686C1207.04 389.738 1026.64 436.719 876.262 372.086C838.221 390.918 801.71 410.518 767.619 430.704C750.117 441.068 733.367 451.519 717.462 462.029C772.57 452.22 845.428 446.567 940.798 447.888C952.231 448.046 962.613 458.89 958.935 467.932C933.605 530.217 834.026 615.31 582.805 576.565C564.647 598.881 552.943 619.665 547.102 638.559C538.916 665.036 541.272 690.265 559.361 717.774C573.213 738.84 597.126 762.321 635.286 787.019C642.488 754.067 689.955 715.053 813.5 673.739C822.769 670.64 835.713 671.123 841.843 674.943C920.02 723.654 995.129 814.797 788.699 860.623C861.418 887.798 951.682 914.149 1062.03 939.106C1043.08 910.559 1046.58 872.234 1091.94 821.711C1097.08 815.982 1105.37 812.906 1111.94 814.165C1238.05 838.331 1420.82 900.952 1300.37 985.347C1361.24 995.517 1426.38 1005.34 1496.02 1014.77L1497.05 1014.91L1498.07 1015.09C1531.76 1021.03 1577.34 1031.24 1623.69 1045.4C1670.04 1031.24 1715.61 1021.03 1749.31 1015.09L1750.33 1014.91L1751.36 1014.77C1821 1005.34 1886.14 995.517 1947.01 985.346C1826.56 900.951 2009.33 838.331 2135.44 814.165C2142.01 812.906 2150.3 815.982 2155.44 821.711C2200.8 872.234 2204.29 910.559 2185.34 939.106C2295.7 914.149 2385.96 887.799 2458.68 860.624C2252.24 814.798 2327.35 723.654 2405.53 674.943C2411.66 671.123 2424.61 670.64 2433.87 673.739C2557.42 715.054 2604.89 754.068 2612.09 787.021C2650.25 762.322 2674.16 738.84 2688.02 717.773C2706.11 690.265 2708.46 665.036 2700.28 638.559C2694.44 619.665 2682.73 598.881 2664.57 576.564C2413.35 615.311 2313.77 530.218 2288.44 467.932C2284.76 458.89 2295.14 448.046 2306.58 447.888C2401.95 446.567 2474.81 452.22 2529.92 462.029C2514.01 451.52 2497.26 441.068 2479.76 430.704C2445.67 410.518 2409.16 390.919 2371.12 372.087C2220.74 436.72 2040.34 389.739 1946.25 347.687C1935.17 342.737 1933.71 335.014 1942.58 332.183C2033.15 303.295 2111.28 290.166 2177.02 287.009C2140.97 272.959 2104.86 259.744 2069.3 247.493C2058.55 243.79 2049.8 236.916 2043.72 228.278C1871.1 243.508 1776.52 151.997 1741.45 83.2325C1736.7 73.931 1743.38 63.3086 1753.77 62.2773C2045.55 33.3203 2145.7 110.523 2166.37 171.73C2223.82 192.965 2282.14 216.533 2338.96 242.013C2366 198.159 2468 164.575 2548.02 147.484C2554.61 146.078 2563.33 148.971 2568.97 154.532C2668.47 252.667 2600.12 306.133 2515.11 330.934C2521.05 334.341 2526.93 337.769 2532.75 341.216C2596.65 379.051 2654.67 419.997 2700.66 463.36C2702.28 464.882 2703.88 466.411 2705.47 467.947C2746.79 414.463 2900.34 391.55 3005.72 386.034C3012.65 385.671 3018.15 389.662 3018.99 395.887C3035.7 519.87 2886.92 554.437 2777.43 557.393C2786.73 573.679 2794.28 590.501 2799.64 607.84C2807.18 632.244 2810.16 656.958 2808.17 681.533C2896.37 630.087 3072.97 638.066 3181.67 654.032C3190.77 655.368 3193.9 660.269 3188.91 665.062C3063.57 785.316 2881.87 782.159 2783.35 761.053C2780.75 765.699 2777.93 770.32 2774.91 774.914C2747.58 816.482 2704.42 853.888 2646.51 887.95C2749.55 903.462 2807.91 950.768 2833.47 990.162C2839.4 999.291 2831.44 1011.12 2820.02 1011.73C2624.6 1022.05 2518.22 999.043 2464.58 969.045C2413.29 986.957 2355.4 1004.24 2290.45 1020.81C2355.25 1045.18 2388.03 1084.33 2400.49 1117.08C2403.92 1126.09 2393.31 1136.79 2381.88 1136.9C2177.91 1138.88 2077.59 1109.41 2033.75 1075.83C1955.93 1089.91 1871.26 1103.3 1779.34 1115.92C1779.74 1116.21 1780.15 1116.51 1780.55 1116.81C1805.48 1135.36 1833.12 1163.38 1839.18 1202.49C1843.58 1230.87 1824.13 1257.44 1795.75 1261.83C1767.42 1266.23 1740.89 1246.86 1736.43 1218.56C1736.43 1218.6 1736.44 1218.61 1736.43 1218.62C1736.43 1218.62 1736.41 1218.58 1736.37 1218.5L1736.37 1218.49L1736.37 1218.49C1735.93 1217.53 1733 1211.06 1718.48 1200.26C1702.43 1188.32 1678.97 1176.19 1650.26 1164.71C1641.62 1161.25 1632.72 1157.94 1623.69 1154.79C1614.66 1157.94 1605.76 1161.25 1597.12 1164.71C1568.41 1176.19 1544.94 1188.32 1528.9 1200.26C1514.38 1211.06 1511.45 1217.53 1511.01 1218.49C1510.97 1218.57 1510.95 1218.62 1510.95 1218.62C1510.94 1218.61 1510.94 1218.6 1510.95 1218.58L1510.95 1218.56C1506.48 1246.86 1479.95 1266.22 1451.62 1261.83C1423.24 1257.44 1403.8 1230.87 1408.2 1202.48C1414.26 1163.38 1441.89 1135.36 1466.83 1116.81C1467.23 1116.51 1467.63 1116.21 1468.04 1115.92C1376.12 1103.3 1291.45 1089.91 1213.63 1075.83C1169.79 1109.41 1069.47 1138.88 865.494 1136.9C854.068 1136.79 843.455 1126.09 846.885 1117.08C859.35 1084.33 892.124 1045.18 956.922 1020.81C891.974 1004.24 834.091 986.957 782.803 969.045C729.161 999.044 622.779 1022.05 427.358 1011.73C415.938 1011.12 407.983 999.291 413.907 990.162C439.473 950.768 497.825 903.462 600.87 887.95C542.961 853.889 499.799 816.483 472.465 774.914C469.444 770.32 466.633 765.699 464.028 761.053C365.503 782.159 183.813 785.316 58.4698 665.062C53.4742 660.269 56.6109 655.368 65.7073 654.032C174.408 638.066 351.005 630.087 439.207 681.533C437.221 656.958 440.197 632.244 447.742 607.84C453.102 590.501 460.645 573.68 469.952 557.394C360.454 554.438 211.674 519.871 228.39 395.888C229.23 389.663 234.727 385.672 241.661 386.035C347.041 391.551 500.583 414.464 541.905 467.947C543.498 466.411 545.102 464.882 546.716 463.36C592.705 419.997 650.733 379.051 714.631 341.216C720.452 337.769 726.333 334.341 732.27 330.934C647.261 306.133 578.909 252.667 678.409 154.532C684.047 148.971 692.771 146.078 699.355 147.484C779.378 164.575 881.38 198.159 908.418 242.013C965.886 216.242 1024.9 192.427 1082.97 171.004Z"/>
</mask>
<path fill-rule="evenodd" clip-rule="evenodd" d="M1082.97 171.004C1118.41 117.138 1228.04 61.0756 1492.98 85.6892C1503.56 86.6727 1510.29 97.5721 1505.14 106.878C1468.22 173.696 1368.89 262.095 1187.48 243.175C1184.56 244.891 1181.41 246.344 1178.08 247.493C1142.52 259.744 1106.41 272.958 1070.36 287.009C1136.1 290.166 1214.23 303.294 1304.79 332.182C1313.67 335.013 1312.2 342.736 1301.13 347.686C1207.04 389.738 1026.64 436.719 876.262 372.086C838.221 390.918 801.71 410.518 767.619 430.704C750.117 441.068 733.367 451.519 717.462 462.029C772.57 452.22 845.428 446.567 940.798 447.888C952.231 448.046 962.613 458.89 958.935 467.932C933.605 530.217 834.026 615.31 582.805 576.565C564.647 598.881 552.943 619.665 547.102 638.559C538.916 665.036 541.272 690.265 559.361 717.774C573.213 738.84 597.126 762.321 635.286 787.019C642.488 754.067 689.955 715.053 813.5 673.739C822.769 670.64 835.713 671.123 841.843 674.943C920.02 723.654 995.129 814.797 788.699 860.623C861.418 887.798 951.682 914.149 1062.03 939.106C1043.08 910.559 1046.58 872.234 1091.94 821.711C1097.08 815.982 1105.37 812.906 1111.94 814.165C1238.05 838.331 1420.82 900.952 1300.37 985.347C1361.24 995.517 1426.38 1005.34 1496.02 1014.77L1497.05 1014.91L1498.07 1015.09C1531.76 1021.03 1577.34 1031.24 1623.69 1045.4C1670.04 1031.24 1715.61 1021.03 1749.31 1015.09L1750.33 1014.91L1751.36 1014.77C1821 1005.34 1886.14 995.517 1947.01 985.346C1826.56 900.951 2009.33 838.331 2135.44 814.165C2142.01 812.906 2150.3 815.982 2155.44 821.711C2200.8 872.234 2204.29 910.559 2185.34 939.106C2295.7 914.149 2385.96 887.799 2458.68 860.624C2252.24 814.798 2327.35 723.654 2405.53 674.943C2411.66 671.123 2424.61 670.64 2433.87 673.739C2557.42 715.054 2604.89 754.068 2612.09 787.021C2650.25 762.322 2674.16 738.84 2688.02 717.773C2706.11 690.265 2708.46 665.036 2700.28 638.559C2694.44 619.665 2682.73 598.881 2664.57 576.564C2413.35 615.311 2313.77 530.218 2288.44 467.932C2284.76 458.89 2295.14 448.046 2306.58 447.888C2401.95 446.567 2474.81 452.22 2529.92 462.029C2514.01 451.52 2497.26 441.068 2479.76 430.704C2445.67 410.518 2409.16 390.919 2371.12 372.087C2220.74 436.72 2040.34 389.739 1946.25 347.687C1935.17 342.737 1933.71 335.014 1942.58 332.183C2033.15 303.295 2111.28 290.166 2177.02 287.009C2140.97 272.959 2104.86 259.744 2069.3 247.493C2058.55 243.79 2049.8 236.916 2043.72 228.278C1871.1 243.508 1776.52 151.997 1741.45 83.2325C1736.7 73.931 1743.38 63.3086 1753.77 62.2773C2045.55 33.3203 2145.7 110.523 2166.37 171.73C2223.82 192.965 2282.14 216.533 2338.96 242.013C2366 198.159 2468 164.575 2548.02 147.484C2554.61 146.078 2563.33 148.971 2568.97 154.532C2668.47 252.667 2600.12 306.133 2515.11 330.934C2521.05 334.341 2526.93 337.769 2532.75 341.216C2596.65 379.051 2654.67 419.997 2700.66 463.36C2702.28 464.882 2703.88 466.411 2705.47 467.947C2746.79 414.463 2900.34 391.55 3005.72 386.034C3012.65 385.671 3018.15 389.662 3018.99 395.887C3035.7 519.87 2886.92 554.437 2777.43 557.393C2786.73 573.679 2794.28 590.501 2799.64 607.84C2807.18 632.244 2810.16 656.958 2808.17 681.533C2896.37 630.087 3072.97 638.066 3181.67 654.032C3190.77 655.368 3193.9 660.269 3188.91 665.062C3063.57 785.316 2881.87 782.159 2783.35 761.053C2780.75 765.699 2777.93 770.32 2774.91 774.914C2747.58 816.482 2704.42 853.888 2646.51 887.95C2749.55 903.462 2807.91 950.768 2833.47 990.162C2839.4 999.291 2831.44 1011.12 2820.02 1011.73C2624.6 1022.05 2518.22 999.043 2464.58 969.045C2413.29 986.957 2355.4 1004.24 2290.45 1020.81C2355.25 1045.18 2388.03 1084.33 2400.49 1117.08C2403.92 1126.09 2393.31 1136.79 2381.88 1136.9C2177.91 1138.88 2077.59 1109.41 2033.75 1075.83C1955.93 1089.91 1871.26 1103.3 1779.34 1115.92C1779.74 1116.21 1780.15 1116.51 1780.55 1116.81C1805.48 1135.36 1833.12 1163.38 1839.18 1202.49C1843.58 1230.87 1824.13 1257.44 1795.75 1261.83C1767.42 1266.23 1740.89 1246.86 1736.43 1218.56C1736.43 1218.6 1736.44 1218.61 1736.43 1218.62C1736.43 1218.62 1736.41 1218.58 1736.37 1218.5L1736.37 1218.49L1736.37 1218.49C1735.93 1217.53 1733 1211.06 1718.48 1200.26C1702.43 1188.32 1678.97 1176.19 1650.26 1164.71C1641.62 1161.25 1632.72 1157.94 1623.69 1154.79C1614.66 1157.94 1605.76 1161.25 1597.12 1164.71C1568.41 1176.19 1544.94 1188.32 1528.9 1200.26C1514.38 1211.06 1511.45 1217.53 1511.01 1218.49C1510.97 1218.57 1510.95 1218.62 1510.95 1218.62C1510.94 1218.61 1510.94 1218.6 1510.95 1218.58L1510.95 1218.56C1506.48 1246.86 1479.95 1266.22 1451.62 1261.83C1423.24 1257.44 1403.8 1230.87 1408.2 1202.48C1414.26 1163.38 1441.89 1135.36 1466.83 1116.81C1467.23 1116.51 1467.63 1116.21 1468.04 1115.92C1376.12 1103.3 1291.45 1089.91 1213.63 1075.83C1169.79 1109.41 1069.47 1138.88 865.494 1136.9C854.068 1136.79 843.455 1126.09 846.885 1117.08C859.35 1084.33 892.124 1045.18 956.922 1020.81C891.974 1004.24 834.091 986.957 782.803 969.045C729.161 999.044 622.779 1022.05 427.358 1011.73C415.938 1011.12 407.983 999.291 413.907 990.162C439.473 950.768 497.825 903.462 600.87 887.95C542.961 853.889 499.799 816.483 472.465 774.914C469.444 770.32 466.633 765.699 464.028 761.053C365.503 782.159 183.813 785.316 58.4698 665.062C53.4742 660.269 56.6109 655.368 65.7073 654.032C174.408 638.066 351.005 630.087 439.207 681.533C437.221 656.958 440.197 632.244 447.742 607.84C453.102 590.501 460.645 573.68 469.952 557.394C360.454 554.438 211.674 519.871 228.39 395.888C229.23 389.663 234.727 385.672 241.661 386.035C347.041 391.551 500.583 414.464 541.905 467.947C543.498 466.411 545.102 464.882 546.716 463.36C592.705 419.997 650.733 379.051 714.631 341.216C720.452 337.769 726.333 334.341 732.27 330.934C647.261 306.133 578.909 252.667 678.409 154.532C684.047 148.971 692.771 146.078 699.355 147.484C779.378 164.575 881.38 198.159 908.418 242.013C965.886 216.242 1024.9 192.427 1082.97 171.004Z" fill="#318B35"/>
<path d="M1492.98 85.6892L1498.16 29.9293L1498.16 29.9293L1492.98 85.6892ZM1082.97 171.004L1102.35 223.543L1119.63 217.17L1129.75 201.784L1082.97 171.004ZM1505.14 106.878L1456.13 79.7924L1456.13 79.7929L1505.14 106.878ZM1187.48 243.175L1193.29 187.477L1175.02 185.571L1159.17 194.859L1187.48 243.175ZM1178.08 247.493L1196.32 300.438L1196.32 300.438L1178.08 247.493ZM1070.36 287.009L1050.03 234.832L1067.68 342.944L1070.36 287.009ZM1304.79 332.182L1321.81 278.83L1321.81 278.83L1304.79 332.182ZM1301.13 347.686L1323.98 398.812L1323.98 398.812L1301.13 347.686ZM876.262 372.086L898.374 320.637L874.604 310.42L851.417 321.899L876.262 372.086ZM767.619 430.704L796.152 478.89L796.152 478.89L767.619 430.704ZM717.462 462.029L686.59 415.307L727.275 517.162L717.462 462.029ZM940.798 447.888L940.022 503.883L940.022 503.883L940.798 447.888ZM958.935 467.932L1010.81 489.029L1010.81 489.028L958.935 467.932ZM582.805 576.565L591.341 521.219L559.622 516.327L539.366 541.222L582.805 576.565ZM547.102 638.559L493.6 622.018L493.6 622.018L547.102 638.559ZM559.361 717.774L512.571 748.542L512.571 748.542L559.361 717.774ZM635.286 787.019L604.859 834.032L672.734 877.961L689.995 798.975L635.286 787.019ZM813.5 673.739L831.26 726.849L831.26 726.849L813.5 673.739ZM841.843 674.943L871.458 627.414L871.458 627.414L841.843 674.943ZM788.699 860.623L776.562 805.954L592.043 846.916L769.095 913.08L788.699 860.623ZM1062.03 939.106L1049.68 993.727L1185.97 1024.55L1108.69 908.136L1062.03 939.106ZM1091.94 821.711L1050.27 784.301L1050.27 784.301L1091.94 821.711ZM1111.94 814.165L1101.4 869.164L1101.4 869.164L1111.94 814.165ZM1300.37 985.347L1268.24 939.484L1156.15 1018.02L1291.14 1040.58L1300.37 985.347ZM1496.02 1014.77L1503.53 959.277L1503.53 959.277L1496.02 1014.77ZM1497.05 1014.91L1506.77 959.76L1505.67 959.566L1504.56 959.416L1497.05 1014.91ZM1498.07 1015.09L1507.79 959.941L1507.79 959.941L1498.07 1015.09ZM1623.69 1045.4L1607.33 1098.96L1623.69 1103.96L1640.05 1098.96L1623.69 1045.4ZM1749.31 1015.09L1739.59 959.941L1739.59 959.941L1749.31 1015.09ZM1750.33 1014.91L1742.82 959.416L1741.71 959.566L1740.61 959.76L1750.33 1014.91ZM1751.36 1014.77L1743.85 959.277L1743.85 959.277L1751.36 1014.77ZM1947.01 985.346L1956.24 1040.58L2091.23 1018.02L1979.14 939.484L1947.01 985.346ZM2135.44 814.165L2124.9 759.166L2124.9 759.166L2135.44 814.165ZM2155.44 821.711L2113.77 859.121L2113.77 859.121L2155.44 821.711ZM2185.34 939.106L2138.69 908.136L2061.41 1024.55L2197.7 993.727L2185.34 939.106ZM2458.68 860.624L2478.28 913.081L2655.33 846.916L2470.81 805.954L2458.68 860.624ZM2405.53 674.943L2435.15 722.472L2435.15 722.471L2405.53 674.943ZM2433.87 673.739L2451.63 620.63L2451.63 620.63L2433.87 673.739ZM2612.09 787.021L2557.38 798.974L2574.64 877.964L2642.51 834.034L2612.09 787.021ZM2688.02 717.773L2641.23 687.005L2641.23 687.005L2688.02 717.773ZM2700.28 638.559L2646.78 655.1L2646.78 655.1L2700.28 638.559ZM2664.57 576.564L2708.01 541.221L2687.76 516.326L2656.04 521.219L2664.57 576.564ZM2288.44 467.932L2236.56 489.029L2236.56 489.029L2288.44 467.932ZM2306.58 447.888L2307.35 503.883L2307.35 503.883L2306.58 447.888ZM2529.92 462.029L2520.1 517.163L2560.79 415.308L2529.92 462.029ZM2479.76 430.704L2451.23 478.89L2451.23 478.89L2479.76 430.704ZM2371.12 372.087L2395.96 321.9L2372.78 310.421L2349.01 320.637L2371.12 372.087ZM1946.25 347.687L1923.4 398.813L1923.4 398.813L1946.25 347.687ZM1942.58 332.183L1925.57 278.831L1925.57 278.831L1942.58 332.183ZM2177.02 287.009L2179.71 342.945L2197.36 234.833L2177.02 287.009ZM2069.3 247.493L2087.54 194.547L2087.54 194.547L2069.3 247.493ZM2043.72 228.278L2089.53 196.066L2070.96 169.657L2038.8 172.494L2043.72 228.278ZM1741.45 83.2325L1691.56 108.675L1691.56 108.675L1741.45 83.2325ZM1753.77 62.2773L1748.24 6.55109L1748.24 6.55114L1753.77 62.2773ZM2166.37 171.73L2113.32 189.649L2121.88 214.984L2146.96 224.256L2166.37 171.73ZM2338.96 242.013L2316.05 293.11L2360.86 313.205L2386.63 271.403L2338.96 242.013ZM2548.02 147.484L2536.33 92.7191L2536.33 92.7191L2548.02 147.484ZM2568.97 154.532L2608.29 114.661L2608.29 114.661L2568.97 154.532ZM2515.11 330.934L2499.42 277.175L2373.14 314.019L2487.23 379.503L2515.11 330.934ZM2532.75 341.216L2504.22 389.402L2504.22 389.402L2532.75 341.216ZM2700.66 463.36L2662.25 504.104L2662.25 504.105L2700.66 463.36ZM2705.47 467.947L2666.6 508.254L2711.58 551.638L2749.79 502.185L2705.47 467.947ZM3005.72 386.034L3008.64 441.957L3008.65 441.957L3005.72 386.034ZM3018.99 395.887L2963.49 403.369L2963.49 403.369L3018.99 395.887ZM2777.43 557.393L2775.91 501.414L2682.37 503.94L2728.81 585.181L2777.43 557.393ZM2799.64 607.84L2746.14 624.381L2746.14 624.381L2799.64 607.84ZM2808.17 681.533L2752.35 677.023L2743.71 783.96L2836.39 729.906L2808.17 681.533ZM3181.67 654.032L3189.81 598.626L3189.81 598.626L3181.67 654.032ZM3188.91 665.062L3227.68 705.472L3227.68 705.472L3188.91 665.062ZM2783.35 761.053L2795.08 706.295L2754.7 697.645L2734.5 733.667L2783.35 761.053ZM2774.91 774.914L2728.12 744.146L2728.12 744.146L2774.91 774.914ZM2646.51 887.95L2618.12 839.681L2481.9 919.802L2638.17 943.326L2646.51 887.95ZM2833.47 990.162L2786.5 1020.65L2786.5 1020.65L2833.47 990.162ZM2820.02 1011.73L2822.98 1067.65L2822.98 1067.65L2820.02 1011.73ZM2464.58 969.045L2491.91 920.169L2469.91 907.865L2446.11 916.176L2464.58 969.045ZM2290.45 1020.81L2276.6 966.553L2104.13 1010.58L2270.74 1073.23L2290.45 1020.81ZM2400.49 1117.08L2452.83 1097.15L2400.49 1117.08ZM2381.88 1136.9L2382.43 1192.9L2382.43 1192.9L2381.88 1136.9ZM2033.75 1075.83L2067.8 1031.37L2048.14 1016.31L2023.78 1020.72L2033.75 1075.83ZM1779.34 1115.92L1771.72 1060.44L1634.79 1079.24L1746.19 1161.05L1779.34 1115.92ZM1780.55 1116.81L1813.97 1071.88L1813.97 1071.88L1780.55 1116.81ZM1839.18 1202.49L1894.52 1193.91L1894.52 1193.91L1839.18 1202.49ZM1795.75 1261.83L1804.33 1317.17L1804.33 1317.17L1795.75 1261.83ZM1736.43 1218.56L1791.74 1209.83L1681.02 1226.69L1736.43 1218.56ZM1736.43 1218.62L1752.32 1272.31L1752.42 1272.28L1752.52 1272.25L1736.43 1218.62ZM1736.37 1218.5L1685.17 1241.18L1685.3 1241.48L1685.44 1241.77L1736.37 1218.5ZM1736.37 1218.49L1683.44 1236.77L1684.21 1239.01L1685.17 1241.18L1736.37 1218.49ZM1736.37 1218.49L1789.3 1200.21L1788.45 1197.75L1787.38 1195.38L1736.37 1218.49ZM1718.48 1200.26L1685.05 1245.19L1685.06 1245.19L1718.48 1200.26ZM1650.26 1164.71L1671.05 1112.71L1671.05 1112.71L1650.26 1164.71ZM1623.69 1154.79L1642.16 1101.92L1623.69 1095.47L1605.22 1101.92L1623.69 1154.79ZM1597.12 1164.71L1576.33 1112.71L1576.33 1112.71L1597.12 1164.71ZM1528.9 1200.26L1562.32 1245.19L1562.32 1245.19L1528.9 1200.26ZM1511.01 1218.49L1562.01 1241.62L1562.01 1241.61L1562.02 1241.6L1511.01 1218.49ZM1510.95 1218.62L1527.04 1164.98L1527.01 1164.97L1526.98 1164.96L1510.95 1218.62ZM1510.95 1218.58L1455.48 1210.88L1455.42 1211.28L1455.37 1211.68L1510.95 1218.58ZM1510.95 1218.56L1566.42 1226.26L1455.63 1209.83L1510.95 1218.56ZM1451.62 1261.83L1460.2 1206.5L1460.2 1206.5L1451.62 1261.83ZM1408.2 1202.48L1352.86 1193.91L1352.86 1193.91L1408.2 1202.48ZM1466.83 1116.81L1500.25 1161.74L1500.25 1161.74L1466.83 1116.81ZM1468.04 1115.92L1501.18 1161.06L1612.6 1079.24L1475.66 1060.44L1468.04 1115.92ZM1213.63 1075.83L1223.6 1020.72L1199.24 1016.32L1179.58 1031.37L1213.63 1075.83ZM865.494 1136.9L864.951 1192.9L864.951 1192.9L865.494 1136.9ZM846.885 1117.08L794.549 1097.15L794.549 1097.15L846.885 1117.08ZM956.922 1020.81L976.632 1073.23L1143.25 1010.58L970.772 966.553L956.922 1020.81ZM782.803 969.045L801.267 916.176L777.47 907.865L755.47 920.169L782.803 969.045ZM427.358 1011.73L430.313 955.805L430.313 955.805L427.358 1011.73ZM413.907 990.162L366.933 959.676L366.933 959.676L413.907 990.162ZM600.87 887.95L609.206 943.326L765.476 919.802L629.261 839.681L600.87 887.95ZM472.465 774.914L519.255 744.146L519.255 744.146L472.465 774.914ZM464.028 761.053L512.874 733.667L492.678 697.645L452.297 706.295L464.028 761.053ZM58.4698 665.062L19.7003 705.472L19.7006 705.472L58.4698 665.062ZM65.7073 654.032L73.8451 709.437L73.8453 709.437L65.7073 654.032ZM439.207 681.533L410.992 729.906L503.665 783.96L495.025 677.023L439.207 681.533ZM447.742 607.84L501.243 624.381L501.243 624.381L447.742 607.84ZM469.952 557.394L518.572 585.182L565.003 503.941L471.464 501.415L469.952 557.394ZM228.39 395.888L283.888 403.37L283.888 403.369L228.39 395.888ZM241.661 386.035L238.733 441.958L238.734 441.958L241.661 386.035ZM541.905 467.947L497.591 502.186L535.798 551.636L580.779 508.256L541.905 467.947ZM546.716 463.36L508.298 422.616L508.297 422.617L546.716 463.36ZM714.631 341.216L686.098 293.029L686.098 293.03L714.631 341.216ZM732.27 330.934L760.146 379.503L874.239 314.019L747.954 277.175L732.27 330.934ZM678.409 154.532L639.086 114.661L639.085 114.661L678.409 154.532ZM699.355 147.484L687.657 202.249L687.658 202.249L699.355 147.484ZM908.418 242.013L860.75 271.403L886.523 313.205L931.333 293.11L908.418 242.013ZM1498.16 29.9293C1361.62 17.2444 1260.76 24.8718 1187.21 44.8811C1113.79 64.8561 1063.72 98.3837 1036.19 140.223L1129.75 201.784C1137.67 189.759 1160.12 168.322 1216.61 152.953C1272.98 137.618 1359.4 129.52 1487.8 141.449L1498.16 29.9293ZM1554.16 133.963C1581.78 83.9765 1542.69 34.0669 1498.16 29.9293L1487.8 141.449C1474.84 140.246 1463.3 132.787 1456.7 121.573C1449.78 109.821 1448.41 93.7531 1456.13 79.7924L1554.16 133.963ZM1181.68 298.873C1386.61 320.246 1506.94 219.412 1554.16 133.963L1456.13 79.7929C1429.5 127.98 1351.17 203.943 1193.29 187.477L1181.68 298.873ZM1196.32 300.438C1203.18 298.077 1209.69 295.069 1215.8 291.491L1159.17 194.859C1159.42 194.713 1159.65 194.612 1159.84 194.547L1196.32 300.438ZM1090.7 339.185C1126.03 325.414 1161.44 312.455 1196.32 300.438L1159.84 194.547C1123.6 207.033 1086.79 220.502 1050.03 234.832L1090.7 339.185ZM1321.81 278.83C1227.04 248.602 1144.09 234.485 1073.05 231.073L1067.68 342.944C1128.1 345.846 1201.41 357.986 1287.78 385.533L1321.81 278.83ZM1323.98 398.812C1334.36 394.171 1358.6 380.772 1365.12 351.222C1369.03 333.551 1364.94 315.066 1353.64 300.614C1343.56 287.722 1330.74 281.678 1321.81 278.83L1287.78 385.533C1283.29 384.102 1273.61 380.085 1265.4 369.592C1255.98 357.539 1252.5 341.824 1255.76 327.057C1258.61 314.18 1265.51 306.301 1269.25 302.789C1273.29 298.988 1276.79 297.224 1278.28 296.56L1323.98 398.812ZM854.149 423.535C1026.1 497.441 1224.82 443.129 1323.98 398.812L1278.28 296.56C1189.26 336.347 1027.18 375.996 898.374 320.637L854.149 423.535ZM796.152 478.89C828.86 459.523 864.118 440.584 901.107 422.273L851.417 321.899C812.323 341.253 774.56 361.514 739.087 382.518L796.152 478.89ZM748.334 508.75C763.404 498.793 779.368 488.828 796.152 478.89L739.087 382.518C720.865 393.308 703.329 404.246 686.59 415.307L748.334 508.75ZM941.573 391.893C843.818 390.54 767.235 396.289 707.649 406.895L727.275 517.162C777.904 508.151 847.038 502.595 940.022 503.883L941.573 391.893ZM1010.81 489.028C1023.63 457.507 1009.15 430.095 996.678 416.59C983.7 402.535 964.068 392.205 941.573 391.893L940.022 503.883C928.961 503.73 920.236 498.901 914.389 492.567C909.05 486.785 897.919 469.316 907.061 446.836L1010.81 489.028ZM574.269 631.91C838.037 672.591 971.471 585.761 1010.81 489.029L907.061 446.836C895.74 474.674 830.015 558.029 591.341 521.219L574.269 631.91ZM600.603 655.1C603.729 644.99 611.135 630.476 626.243 611.907L539.366 541.222C518.16 567.286 502.157 594.34 493.6 622.018L600.603 655.1ZM606.151 687.006C597.338 673.603 597.312 665.745 600.603 655.1L493.6 622.018C480.52 664.326 485.206 706.927 512.571 748.542L606.151 687.006ZM665.713 740.006C631.775 718.041 614.451 699.627 606.151 687.005L512.571 748.542C531.976 778.052 562.476 806.601 604.859 834.032L665.713 740.006ZM795.74 620.63C731.642 642.065 683.57 664.064 649.44 687.095C616.367 709.413 588.688 737.952 580.578 775.063L689.995 798.975C689.086 803.134 688.741 795.69 712.089 779.934C734.379 764.893 771.814 746.728 831.26 726.849L795.74 620.63ZM871.458 627.414C856.531 618.114 840.543 616.177 831.134 615.793C820.356 615.353 807.862 616.577 795.74 620.63L831.26 726.849C828.407 727.803 827.019 727.718 826.562 727.7C826.109 727.681 824.909 727.605 823.036 727.155C821.467 726.777 817.322 725.645 812.228 722.472L871.458 627.414ZM800.835 915.292C855.656 903.122 898.784 886.606 928.925 863.746C961.315 839.18 981.03 804.852 977.823 764.436C975.007 728.941 955.115 700.112 936.777 680.163C917.527 659.222 893.786 641.327 871.458 627.414L812.228 722.472C828.989 732.915 843.953 744.679 854.322 755.96C865.604 768.232 866.245 774.186 866.174 773.294C865.713 767.481 870.385 767.576 861.243 774.509C849.851 783.15 824.957 795.211 776.562 805.954L800.835 915.292ZM1074.39 884.486C965.771 859.921 878.048 834.23 808.302 808.166L769.095 913.08C844.788 941.366 937.593 968.377 1049.68 993.727L1074.39 884.486ZM1050.27 784.301C1023.92 813.648 1005.08 844.435 998.117 876.905C990.708 911.447 997.749 943.519 1015.38 970.077L1108.69 908.136C1107.37 906.146 1106.69 904.782 1107.63 900.394C1109.01 893.934 1114.6 880.297 1133.61 859.121L1050.27 784.301ZM1122.48 759.166C1093.83 753.675 1066.5 766.215 1050.27 784.301L1133.61 859.121C1129.73 863.446 1125.34 866.145 1121.09 867.743C1117.06 869.256 1110.22 870.854 1101.4 869.164L1122.48 759.166ZM1332.51 1031.21C1367.69 1006.55 1401.03 969.524 1395.08 919.742C1389.7 874.801 1354.29 846.059 1328.46 829.786C1272.69 794.661 1186.69 771.471 1122.48 759.166L1101.4 869.164C1163.3 881.026 1231.73 901.228 1268.77 924.554C1289.33 937.506 1284.91 941.754 1283.87 933.046C1282.25 919.496 1293.27 921.943 1268.24 939.484L1332.51 1031.21ZM1503.53 959.277C1434.41 949.919 1369.85 940.179 1309.6 930.112L1291.14 1040.58C1352.63 1050.86 1418.35 1060.77 1488.5 1070.26L1503.53 959.277ZM1504.56 959.416L1503.53 959.277L1488.5 1070.26L1489.53 1070.4L1504.56 959.416ZM1507.79 959.941L1506.77 959.76L1487.32 1070.06L1488.35 1070.24L1507.79 959.941ZM1640.05 991.847C1591.31 976.957 1543.5 966.236 1507.79 959.941L1488.35 1070.24C1520.03 1075.83 1563.37 1085.53 1607.33 1098.96L1640.05 991.847ZM1739.59 959.941C1703.88 966.236 1656.07 976.957 1607.33 991.847L1640.05 1098.96C1684 1085.53 1727.35 1075.83 1759.03 1070.24L1739.59 959.941ZM1740.61 959.76L1739.59 959.941L1759.03 1070.24L1760.06 1070.06L1740.61 959.76ZM1743.85 959.277L1742.82 959.416L1757.85 1070.4L1758.88 1070.26L1743.85 959.277ZM1937.78 930.112C1877.53 940.179 1812.96 949.919 1743.85 959.277L1758.87 1070.26C1829.03 1060.76 1894.75 1050.86 1956.24 1040.58L1937.78 930.112ZM2124.9 759.166C2060.69 771.471 1974.69 794.661 1918.92 829.786C1893.08 846.059 1857.68 874.801 1852.3 919.741C1846.34 969.523 1879.68 1006.55 1914.87 1031.21L1979.14 939.484C1954.11 921.942 1965.13 919.496 1963.51 933.046C1962.46 941.754 1958.05 937.506 1978.61 924.554C2015.64 901.228 2084.08 881.026 2145.98 869.164L2124.9 759.166ZM2197.11 784.301C2180.87 766.215 2153.55 753.675 2124.9 759.166L2145.98 869.164C2137.16 870.854 2130.32 869.256 2126.29 867.743C2122.03 866.145 2117.65 863.446 2113.77 859.121L2197.11 784.301ZM2232 970.076C2249.63 943.519 2256.67 911.446 2249.26 876.904C2242.3 844.434 2223.46 813.648 2197.11 784.301L2113.77 859.121C2132.78 880.297 2138.37 893.934 2139.75 900.394C2140.69 904.782 2140.01 906.146 2138.69 908.136L2232 970.076ZM2439.08 808.167C2369.33 834.231 2281.61 859.921 2172.99 884.485L2197.7 993.727C2309.78 968.377 2402.59 941.367 2478.28 913.081L2439.08 808.167ZM2375.92 627.414C2353.59 641.327 2329.85 659.222 2310.6 680.163C2292.26 700.112 2272.37 728.942 2269.55 764.436C2266.34 804.853 2286.06 839.181 2318.45 863.747C2348.59 886.607 2391.72 903.123 2446.54 915.293L2470.81 805.954C2422.42 795.211 2397.52 783.15 2386.13 774.509C2376.99 767.576 2381.66 767.481 2381.2 773.294C2381.13 774.186 2381.77 768.232 2393.05 755.96C2403.42 744.679 2418.39 732.915 2435.15 722.472L2375.92 627.414ZM2451.63 620.63C2439.51 616.577 2427.02 615.353 2416.24 615.793C2406.83 616.177 2390.84 618.114 2375.92 627.414L2435.15 722.471C2430.05 725.645 2425.91 726.777 2424.34 727.155C2422.47 727.605 2421.27 727.681 2420.81 727.7C2420.36 727.718 2418.97 727.803 2416.11 726.848L2451.63 620.63ZM2666.8 775.068C2658.69 737.955 2631.01 709.415 2597.94 687.097C2563.81 664.065 2515.73 642.065 2451.63 620.63L2416.11 726.848C2475.56 746.728 2513 764.893 2535.29 779.935C2558.63 795.691 2558.29 803.134 2557.38 798.974L2666.8 775.068ZM2641.23 687.005C2632.93 699.627 2615.6 718.042 2581.66 740.008L2642.51 834.034C2684.9 806.602 2715.4 778.053 2734.81 748.542L2641.23 687.005ZM2646.78 655.1C2650.07 665.745 2650.04 673.602 2641.23 687.005L2734.81 748.542C2762.17 706.927 2766.86 664.326 2753.78 622.018L2646.78 655.1ZM2621.14 611.907C2636.24 630.476 2643.65 644.99 2646.78 655.1L2753.78 622.018C2745.22 594.34 2729.22 567.286 2708.01 541.221L2621.14 611.907ZM2236.56 489.029C2275.9 585.761 2409.34 672.592 2673.11 631.91L2656.04 521.219C2417.36 558.03 2351.63 474.674 2340.31 446.836L2236.56 489.029ZM2305.8 391.893C2283.31 392.205 2263.67 402.535 2250.7 416.59C2238.23 430.094 2223.75 457.506 2236.56 489.029L2340.31 446.836C2349.46 469.316 2338.32 486.785 2332.99 492.568C2327.14 498.901 2318.41 503.73 2307.35 503.883L2305.8 391.893ZM2539.73 406.896C2480.14 396.29 2403.56 390.54 2305.8 391.893L2307.35 503.883C2400.34 502.595 2469.47 508.151 2520.1 517.163L2539.73 406.896ZM2451.23 478.89C2468.01 488.829 2483.98 498.793 2499.05 508.751L2560.79 415.308C2544.05 404.247 2526.51 393.308 2508.29 382.518L2451.23 478.89ZM2346.27 422.274C2383.26 440.584 2418.52 459.523 2451.23 478.89L2508.29 382.518C2472.82 361.514 2435.06 341.253 2395.96 321.9L2346.27 422.274ZM2349.01 320.637C2220.2 375.998 2058.12 336.348 1969.1 296.561L1923.4 398.813C2022.56 443.131 2221.28 497.442 2393.23 423.536L2349.01 320.637ZM1969.1 296.561C1970.59 297.225 1974.09 298.989 1978.13 302.79C1981.86 306.302 1988.77 314.181 1991.62 327.058C1994.88 341.825 1991.4 357.54 1981.97 369.593C1973.77 380.086 1964.09 384.103 1959.6 385.534L1925.57 278.831C1916.64 281.679 1903.81 287.723 1893.74 300.615C1882.44 315.067 1878.35 333.552 1882.25 351.223C1888.78 380.772 1913.02 394.172 1923.4 398.813L1969.1 296.561ZM1959.6 385.534C2045.97 357.987 2119.28 345.847 2179.71 342.945L2174.33 231.074C2103.29 234.486 2020.33 248.603 1925.57 278.831L1959.6 385.534ZM2051.06 300.438C2085.93 312.456 2121.35 325.415 2156.68 339.186L2197.36 234.833C2160.59 220.503 2123.78 207.033 2087.54 194.547L2051.06 300.438ZM1997.91 260.49C2010.54 278.445 2028.8 292.77 2051.06 300.438L2087.54 194.547C2087.86 194.658 2088.25 194.857 2088.64 195.15C2089.01 195.433 2089.31 195.749 2089.53 196.066L1997.91 260.49ZM1691.56 108.675C1735.67 195.158 1850.48 301.545 2048.64 284.061L2038.8 172.494C1891.72 185.471 1817.37 108.835 1791.33 57.79L1691.56 108.675ZM1748.24 6.55114C1704.13 10.9287 1666.45 59.4398 1691.56 108.675L1791.33 57.7903C1806.96 88.4222 1782.62 115.688 1759.3 118.004L1748.24 6.55114ZM2219.43 153.812C2202.23 102.883 2156.27 58.0097 2080.89 30.5704C2006.04 3.32383 1898.8 -8.39165 1748.24 6.55109L1759.3 118.004C1900.51 103.989 1989.24 116.397 2042.58 135.814C2095.39 155.039 2109.85 179.371 2113.32 189.649L2219.43 153.812ZM2361.87 190.916C2303.79 164.867 2244.29 140.828 2185.79 119.205L2146.96 224.256C2203.35 245.102 2260.5 268.198 2316.05 293.11L2361.87 190.916ZM2536.33 92.7191C2494.21 101.715 2445.24 115.245 2402.3 132.932C2380.83 141.774 2359.6 152.167 2341.07 164.314C2323.14 176.071 2304.14 191.79 2291.29 212.624L2386.63 271.403C2387.3 270.309 2391.19 265.385 2402.48 257.977C2413.19 250.959 2427.53 243.665 2444.95 236.493C2479.77 222.152 2521.82 210.344 2559.72 202.249L2536.33 92.7191ZM2608.29 114.661C2591.69 98.2905 2564.48 86.7065 2536.33 92.7191L2559.72 202.249C2551.01 204.11 2544.46 202.633 2541.06 201.494C2537.35 200.252 2533.39 198.097 2529.65 194.402L2608.29 114.661ZM2530.79 384.693C2554.92 377.652 2579.92 368.022 2602.08 354.792C2623.89 341.772 2646.53 323.127 2660.68 296.522C2675.84 267.997 2678.43 235.511 2667.73 202.659C2657.67 171.778 2636.65 142.627 2608.29 114.661L2529.65 194.402C2551.04 215.504 2558.79 229.837 2561.24 237.356C2563.05 242.905 2561.89 243.735 2561.78 243.944C2560.65 246.073 2556.48 251.577 2544.68 258.624C2533.22 265.462 2517.8 271.815 2499.42 277.175L2530.79 384.693ZM2561.28 293.029C2555.24 289.45 2549.14 285.895 2542.98 282.365L2487.23 379.503C2492.96 382.788 2498.62 386.088 2504.22 389.402L2561.28 293.029ZM2739.08 422.616C2689.08 375.473 2627.32 332.134 2561.28 293.029L2504.22 389.402C2565.97 425.968 2620.26 464.521 2662.25 504.104L2739.08 422.616ZM2744.35 427.639C2742.6 425.954 2740.84 424.28 2739.08 422.616L2662.25 504.105C2663.71 505.485 2665.16 506.868 2666.6 508.254L2744.35 427.639ZM3002.79 330.11C2948.01 332.978 2879.84 340.379 2818.97 354.44C2788.57 361.461 2758.46 370.491 2732.17 382.225C2706.89 393.512 2679.75 409.643 2661.16 433.709L2749.79 502.185C2751.85 499.509 2759.41 492.719 2777.83 484.496C2795.25 476.719 2817.85 469.647 2844.18 463.566C2896.76 451.42 2958.05 444.606 3008.64 441.957L3002.79 330.11ZM3074.49 388.404C3069.01 347.759 3032.92 328.533 3002.79 330.11L3008.65 441.957C3000.71 442.373 2990.67 440.394 2981.4 433.555C2971.74 426.435 2965.13 415.525 2963.49 403.369L3074.49 388.404ZM2778.94 613.373C2837.06 611.804 2911.18 601.951 2970.67 572.066C3000.96 556.855 3030.48 534.931 3050.81 503.273C3071.82 470.565 3080.31 431.604 3074.49 388.404L2963.49 403.369C2966.02 422.16 2962.19 434.015 2956.58 442.75C2950.29 452.536 2938.91 462.686 2920.4 471.983C2882.31 491.117 2827.29 500.027 2775.91 501.414L2778.94 613.373ZM2853.14 591.299C2846.42 569.564 2837.12 548.986 2826.05 529.606L2728.81 585.181C2736.35 598.372 2742.13 611.438 2746.14 624.381L2853.14 591.299ZM2863.99 686.043C2866.59 653.859 2862.63 622.004 2853.14 591.299L2746.14 624.381C2751.73 642.484 2753.72 660.057 2752.35 677.023L2863.99 686.043ZM3189.81 598.626C3132.94 590.273 3058.14 583.951 2985.25 586.538C2914.48 589.049 2836.56 600.147 2779.96 633.16L2836.39 729.906C2867.99 711.473 2922.46 700.837 2989.22 698.467C3053.85 696.174 3121.7 701.824 3173.53 709.437L3189.81 598.626ZM3227.68 705.472C3234.05 699.354 3242.29 689.028 3245.73 674.093C3249.52 657.652 3246.19 641.031 3237.5 627.693C3222.81 605.129 3199.29 600.018 3189.81 598.626L3173.53 709.437C3171.67 709.164 3167.81 708.403 3162.98 706.069C3158.43 703.87 3150.21 698.886 3143.65 688.808C3136.26 677.461 3133.34 663.048 3136.6 648.916C3139.51 636.289 3146.26 628.374 3150.14 624.652L3227.68 705.472ZM2771.62 815.811C2877.3 838.449 3082.45 844.805 3227.68 705.472L3150.14 624.652C3044.68 725.826 2886.45 725.869 2795.08 706.295L2771.62 815.811ZM2821.7 805.682C2825.43 800.009 2828.93 794.26 2832.2 788.439L2734.5 733.667C2732.56 737.138 2730.43 740.632 2728.12 744.146L2821.7 805.682ZM2674.9 936.219C2737.29 899.521 2788.1 856.785 2821.7 805.682L2728.12 744.146C2707.06 776.18 2671.54 808.256 2618.12 839.681L2674.9 936.219ZM2880.45 959.676C2845.08 905.176 2771.67 850.159 2654.84 832.574L2638.17 943.326C2727.44 956.764 2770.73 996.36 2786.5 1020.65L2880.45 959.676ZM2822.98 1067.65C2847.32 1066.36 2868.33 1053.18 2880.4 1034.36C2892.92 1014.81 2897.29 985.626 2880.45 959.676L2786.5 1020.65C2775.58 1003.83 2778.93 985.119 2786.1 973.923C2792.82 963.448 2804.14 956.488 2817.07 955.805L2822.98 1067.65ZM2437.24 1017.92C2505.13 1055.89 2624.78 1078.12 2822.98 1067.65L2817.07 955.805C2624.42 965.985 2531.3 942.2 2491.91 920.169L2437.24 1017.92ZM2304.3 1075.07C2370.53 1058.17 2429.98 1040.44 2483.04 1021.91L2446.11 916.176C2396.59 933.471 2340.27 950.302 2276.6 966.553L2304.3 1075.07ZM2452.83 1097.15C2433.96 1047.57 2388.06 997.688 2310.16 968.397L2270.74 1073.23C2322.45 1092.67 2342.1 1121.09 2348.16 1137L2452.83 1097.15ZM2382.43 1192.9C2404.7 1192.68 2424.2 1182.65 2437.21 1169.05C2449.56 1156.15 2465 1129.13 2452.83 1097.15L2348.16 1137C2339.42 1114.04 2351.26 1096.87 2356.31 1091.6C2362.02 1085.64 2370.49 1081.01 2381.34 1080.9L2382.43 1192.9ZM1999.7 1120.29C2031.01 1144.27 2076.27 1162.39 2136.68 1174.59C2197.73 1186.92 2277.94 1193.91 2382.43 1192.9L2381.34 1080.9C2281.85 1081.87 2209.91 1075.12 2158.85 1064.81C2107.15 1054.37 2080.33 1040.97 2067.8 1031.37L1999.7 1120.29ZM1786.96 1171.4C1879.56 1158.68 1965.02 1145.18 2043.72 1130.93L2023.78 1020.72C1946.83 1034.65 1862.95 1047.91 1771.72 1060.44L1786.96 1171.4ZM1813.97 1071.88C1813.48 1071.51 1812.98 1071.14 1812.49 1070.78L1746.19 1161.05C1746.51 1161.28 1746.82 1161.52 1747.13 1161.75L1813.97 1071.88ZM1894.52 1193.91C1885.06 1132.9 1842.92 1093.41 1813.97 1071.88L1747.13 1161.74C1768.05 1177.31 1781.17 1193.86 1783.84 1211.06L1894.52 1193.91ZM1804.33 1317.17C1863.27 1308.04 1903.65 1252.85 1894.52 1193.91L1783.84 1211.06C1783.5 1208.88 1785 1206.83 1787.18 1206.5L1804.33 1317.17ZM1681.11 1227.29C1690.39 1286.07 1745.49 1326.29 1804.33 1317.17L1787.18 1206.5C1789.36 1206.16 1791.4 1207.65 1791.74 1209.83L1681.11 1227.29ZM1752.52 1272.25C1775.71 1265.3 1785.12 1247.16 1787.89 1240.71C1791.02 1233.41 1791.82 1227.19 1792.08 1224.92C1792.66 1219.82 1792.37 1215.79 1792.32 1214.98C1792.15 1212.48 1791.84 1210.48 1791.84 1210.43L1681.02 1226.69C1681.02 1226.67 1680.71 1224.7 1680.55 1222.22C1680.5 1221.43 1680.21 1217.4 1680.79 1212.3C1681.05 1210.03 1681.84 1203.82 1684.98 1196.52C1687.75 1190.07 1697.16 1171.93 1720.34 1164.98L1752.52 1272.25ZM1685.44 1241.77C1685.44 1241.77 1685.44 1241.78 1685.45 1241.8C1685.45 1241.81 1685.46 1241.83 1685.47 1241.85C1685.49 1241.89 1685.53 1241.98 1685.58 1242.09C1685.64 1242.22 1685.91 1242.81 1686.28 1243.54C1686.4 1243.77 1687.6 1246.26 1689.5 1249.17C1690.2 1250.25 1692.97 1254.52 1697.63 1258.99C1699.93 1261.21 1704.98 1265.72 1712.66 1269.32C1720.74 1273.11 1735.23 1277.37 1752.32 1272.31L1720.54 1164.92C1737.64 1159.86 1752.12 1164.12 1760.2 1167.91C1767.88 1171.51 1772.93 1176.02 1775.23 1178.24C1779.89 1182.71 1782.65 1186.97 1783.35 1188.05C1785.24 1190.95 1786.44 1193.42 1786.55 1193.64C1787.06 1194.67 1787.54 1195.73 1787.31 1195.23L1685.44 1241.77ZM1685.17 1241.18L1685.17 1241.18L1787.57 1195.81L1787.57 1195.81L1685.17 1241.18ZM1683.44 1236.77L1683.44 1236.77L1789.3 1200.21L1789.3 1200.21L1683.44 1236.77ZM1685.06 1245.19C1689.53 1248.51 1690.56 1249.95 1689.89 1249.15C1689.53 1248.73 1688.76 1247.76 1687.8 1246.21C1687.32 1245.43 1686.83 1244.57 1686.34 1243.63C1686.1 1243.16 1685.88 1242.72 1685.69 1242.31C1685.5 1241.91 1685.35 1241.59 1685.36 1241.6L1787.38 1195.38C1782.35 1184.29 1772.62 1170.74 1751.9 1155.32L1685.06 1245.19ZM1629.47 1216.71C1656.05 1227.33 1674.52 1237.35 1685.05 1245.19L1751.9 1155.32C1730.35 1139.29 1701.89 1125.04 1671.05 1112.71L1629.47 1216.71ZM1605.22 1207.65C1613.56 1210.57 1621.67 1213.59 1629.47 1216.71L1671.05 1112.71C1661.56 1108.92 1651.88 1105.32 1642.16 1101.92L1605.22 1207.65ZM1617.91 1216.71C1625.7 1213.59 1633.82 1210.57 1642.16 1207.65L1605.22 1101.92C1595.49 1105.32 1585.82 1108.91 1576.33 1112.71L1617.91 1216.71ZM1562.32 1245.19C1572.86 1237.35 1591.33 1227.33 1617.91 1216.71L1576.33 1112.71C1545.49 1125.04 1517.03 1139.29 1495.48 1155.32L1562.32 1245.19ZM1562.02 1241.6C1562.03 1241.58 1561.88 1241.91 1561.69 1242.31C1561.49 1242.72 1561.28 1243.16 1561.03 1243.63C1560.55 1244.57 1560.06 1245.43 1559.58 1246.21C1558.62 1247.76 1557.85 1248.73 1557.49 1249.15C1556.82 1249.95 1557.85 1248.51 1562.32 1245.19L1495.48 1155.32C1474.76 1170.74 1465.03 1184.29 1460 1195.38L1562.02 1241.6ZM1494.85 1272.25C1512.8 1277.64 1527.82 1272.73 1535.71 1268.84C1543.29 1265.1 1548.22 1260.52 1550.39 1258.37C1554.84 1253.96 1557.48 1249.8 1558.13 1248.78C1559.93 1245.97 1561.08 1243.58 1561.19 1243.35C1561.54 1242.64 1561.8 1242.08 1561.86 1241.95C1561.91 1241.84 1561.95 1241.75 1561.97 1241.71C1561.99 1241.66 1562.01 1241.62 1562.01 1241.62L1460.01 1195.36C1459.79 1195.84 1460.25 1194.82 1460.74 1193.82C1460.84 1193.61 1461.99 1191.24 1463.77 1188.44C1464.42 1187.42 1467.07 1183.27 1471.51 1178.86C1473.68 1176.71 1478.6 1172.13 1486.18 1168.39C1494.07 1164.5 1509.1 1159.59 1527.04 1164.98L1494.85 1272.25ZM1455.37 1211.68C1455.33 1212 1454.97 1214.71 1454.95 1218.15C1454.94 1219.42 1454.89 1224.41 1456.24 1230.6C1456.91 1233.63 1458.57 1240.15 1462.9 1247.39C1467.42 1254.93 1477.25 1266.99 1494.91 1272.27L1526.98 1164.96C1544.65 1170.24 1554.47 1182.3 1558.99 1189.84C1563.32 1197.08 1564.98 1203.59 1565.65 1206.63C1567 1212.81 1566.95 1217.8 1566.94 1219.06C1566.91 1222.49 1566.56 1225.18 1566.52 1225.49L1455.37 1211.68ZM1455.48 1210.86L1455.48 1210.88L1566.42 1226.28L1566.42 1226.26L1455.48 1210.86ZM1443.05 1317.17C1501.89 1326.29 1556.99 1286.07 1566.27 1227.29L1455.63 1209.83C1455.98 1207.65 1458.02 1206.16 1460.2 1206.5L1443.05 1317.17ZM1352.86 1193.91C1343.73 1252.85 1384.1 1308.04 1443.05 1317.17L1460.2 1206.5C1462.38 1206.83 1463.88 1208.88 1463.54 1211.06L1352.86 1193.91ZM1433.4 1071.88C1404.46 1093.41 1362.31 1132.9 1352.86 1193.91L1463.54 1211.06C1466.21 1193.86 1479.33 1177.31 1500.25 1161.74L1433.4 1071.88ZM1434.89 1070.78C1434.39 1071.15 1433.9 1071.51 1433.4 1071.88L1500.25 1161.74C1500.56 1161.51 1500.87 1161.28 1501.18 1161.06L1434.89 1070.78ZM1203.66 1130.93C1282.36 1145.18 1367.82 1158.68 1460.42 1171.4L1475.66 1060.44C1384.42 1047.91 1300.55 1034.65 1223.6 1020.72L1203.66 1130.93ZM864.951 1192.9C969.435 1193.91 1049.64 1186.92 1110.69 1174.59C1171.11 1162.39 1216.37 1144.27 1247.68 1120.29L1179.58 1031.37C1167.04 1040.97 1140.23 1054.37 1088.53 1064.81C1037.47 1075.11 965.527 1081.87 866.036 1080.9L864.951 1192.9ZM794.549 1097.15C782.378 1129.13 797.816 1156.15 810.164 1169.05C823.183 1182.65 842.674 1192.68 864.951 1192.9L866.036 1080.9C876.888 1081.01 885.359 1085.63 891.073 1091.6C896.116 1096.87 907.962 1114.04 899.222 1137L794.549 1097.15ZM937.211 968.397C859.316 997.688 813.423 1047.57 794.549 1097.15L899.222 1137C905.277 1121.09 924.932 1092.67 976.632 1073.23L937.211 968.397ZM764.339 1021.91C817.393 1040.44 876.845 1058.17 943.072 1075.07L970.772 966.553C907.103 950.302 850.788 933.471 801.267 916.176L764.339 1021.91ZM424.403 1067.65C622.597 1078.12 742.247 1055.89 810.136 1017.92L755.47 920.169C716.075 942.2 622.961 965.985 430.313 955.805L424.403 1067.65ZM366.933 959.676C350.091 985.626 354.454 1014.81 366.981 1034.36C379.046 1053.18 400.058 1066.36 424.403 1067.65L430.313 955.805C443.238 956.488 454.562 963.448 461.276 973.924C468.451 985.119 471.798 1003.83 460.882 1020.65L366.933 959.676ZM592.534 832.574C475.713 850.159 402.303 905.176 366.933 959.676L460.882 1020.65C476.644 996.36 519.937 956.764 609.206 943.326L592.534 832.574ZM425.675 805.683C459.278 856.785 510.087 899.521 572.478 936.219L629.261 839.681C575.835 808.256 540.32 776.18 519.255 744.146L425.675 805.683ZM415.181 788.439C418.444 794.259 421.943 800.009 425.675 805.683L519.255 744.146C516.944 740.632 514.821 737.138 512.874 733.667L415.181 788.439ZM19.7006 705.472C164.93 844.805 370.081 838.449 475.758 815.811L452.297 706.295C360.926 725.869 202.695 725.826 97.2389 624.652L19.7006 705.472ZM57.5695 598.626C48.0891 600.018 24.5687 605.129 9.87594 627.693C1.19052 641.032 -2.14567 657.652 1.64706 674.093C5.09254 689.028 13.3233 699.353 19.7003 705.472L97.2392 624.653C101.118 628.374 107.868 636.29 110.781 648.916C114.041 663.048 111.121 677.461 103.732 688.808C97.1698 698.886 88.9481 703.87 84.3954 706.069C79.5653 708.403 75.7052 709.164 73.8451 709.437L57.5695 598.626ZM467.422 633.16C410.823 600.147 332.894 589.049 262.13 586.538C189.234 583.951 114.436 590.273 57.5693 598.626L73.8453 709.437C125.679 701.824 193.53 696.174 258.158 698.467C324.919 700.837 379.39 711.473 410.992 729.906L467.422 633.16ZM394.24 591.299C384.747 622.004 380.788 653.86 383.389 686.043L495.025 677.023C493.654 660.057 495.646 642.484 501.243 624.381L394.24 591.299ZM421.333 529.607C410.257 548.986 400.96 569.564 394.24 591.299L501.243 624.381C505.245 611.438 511.033 598.373 518.572 585.182L421.333 529.607ZM172.893 388.405C167.068 431.605 175.558 470.565 196.564 503.274C216.896 534.932 246.42 556.855 276.704 572.067C336.198 601.952 410.318 611.805 468.441 613.374L471.464 501.415C420.088 500.028 365.068 491.118 326.977 471.984C308.468 462.687 297.088 452.537 290.803 442.751C285.193 434.016 281.355 422.161 283.888 403.37L172.893 388.405ZM244.589 330.111C214.461 328.534 178.372 347.759 172.892 388.406L283.888 403.369C282.25 415.526 275.636 426.436 265.983 433.557C256.711 440.395 246.671 442.374 238.733 441.958L244.589 330.111ZM586.219 433.709C567.626 409.643 540.49 393.513 515.207 382.225C488.923 370.491 458.806 361.462 428.409 354.44C367.54 340.38 299.37 332.979 244.589 330.111L238.734 441.958C289.332 444.607 350.623 451.421 403.201 463.567C429.527 469.648 452.13 476.72 469.55 484.497C487.97 492.72 495.524 499.51 497.591 502.186L586.219 433.709ZM508.297 422.617C506.534 424.28 504.778 425.953 503.031 427.638L580.779 508.256C582.217 506.869 583.669 505.485 585.134 504.103L508.297 422.617ZM686.098 293.03C620.057 332.135 558.297 375.473 508.298 422.616L585.133 504.105C627.114 464.521 681.409 425.968 743.163 389.402L686.098 293.03ZM704.394 282.365C698.242 285.895 692.143 289.451 686.098 293.029L743.163 389.402C748.761 386.087 754.423 382.787 760.146 379.503L704.394 282.365ZM639.085 114.661C610.731 142.627 589.711 171.778 579.649 202.659C568.945 235.511 571.537 267.997 586.703 296.522C600.848 323.127 623.484 341.772 645.295 354.792C667.456 368.022 692.454 377.652 716.585 384.693L747.954 277.175C729.581 271.815 714.157 265.462 702.703 258.624C690.898 251.577 686.726 246.073 685.595 243.944C685.484 243.735 684.331 242.905 686.139 237.356C688.589 229.837 696.337 215.504 717.733 194.402L639.085 114.661ZM711.053 92.7194C682.9 86.7061 655.684 98.291 639.086 114.661L717.732 194.403C713.987 198.097 710.024 200.252 706.318 201.494C702.918 202.633 696.372 204.11 687.657 202.249L711.053 92.7194ZM956.086 212.623C943.242 191.79 924.236 176.071 906.304 164.314C887.777 152.167 866.55 141.774 845.082 132.932C802.137 115.245 753.173 101.716 711.052 92.7192L687.658 202.249C725.56 210.344 767.609 222.152 802.43 236.493C819.845 243.665 834.19 250.959 844.893 257.977C856.192 265.385 860.076 270.309 860.75 271.403L956.086 212.623ZM1063.59 118.465C1004.45 140.28 944.253 164.569 885.503 190.916L931.333 293.11C987.518 267.914 1045.34 244.574 1102.35 223.543L1063.59 118.465Z" fill="black" mask="url(#path-7-outside-1_786_17813)"/>
<path d="M1432 2413.83C1646.3 2488.91 2016 2488 2152 2168" stroke="black" stroke-width="104" stroke-linecap="round" stroke-linejoin="bevel"/>
<path d="M1192 1680C1128.44 1725.31 953.059 1791.31 760 1692.79" stroke="black" stroke-width="136" stroke-linecap="round"/>
<path d="M2056 1680C2119.56 1725.31 2294.94 1791.31 2488 1692.79" stroke="black" stroke-width="136" stroke-linecap="round"/>
<defs>
<filter id="filter0_d_786_17813" x="335.056" y="735.791" width="2510.07" height="772.209" filterUnits="userSpaceOnUse" color-interpolation-filters="sRGB">
<feFlood flood-opacity="0" result="BackgroundImageFix"/>
<feColorMatrix in="SourceAlpha" type="matrix" values="0 0 0 0 0 0 0 0 0 0 0 0 0 0 0 0 0 0 127 0" result="hardAlpha"/>
<feOffset dy="40"/>
<feGaussianBlur stdDeviation="80"/>
<feComposite in2="hardAlpha" operator="out"/>
<feColorMatrix type="matrix" values="0 0 0 0 0 0 0 0 0 0 0 0 0 0 0 0 0 0 0.7 0"/>
<feBlend mode="normal" in2="BackgroundImageFix" result="effect1_dropShadow_786_17813"/>
<feBlend mode="normal" in="SourceGraphic" in2="effect1_dropShadow_786_17813" result="shape"/>
</filter>
<linearGradient id="paint0_linear_786_17813" x1="1624" y1="312" x2="1624" y2="2984" gradientUnits="userSpaceOnUse">
<stop stop-color="#FFE78F"/>
<stop offset="0.43" stop-color="#E2B452"/>
<stop offset="1" stop-color="#BB7000"/>
</linearGradient>
</defs>
</svg>
