<svg width="2956" height="2956" viewBox="0 0 2956 2956" fill="none" xmlns="http://www.w3.org/2000/svg">
<path d="M2956 1478C2956 2294.28 2294.28 2956 1478 2956C661.723 2956 0 2294.28 0 1478C0 661.723 661.723 0 1478 0C2294.28 0 2956 661.723 2956 1478Z" fill="url(#paint0_linear_744_15633)"/>
<path d="M504.465 1249.97C584.382 1275.49 779.763 1281.72 921.949 1102.49" stroke="black" stroke-width="97.3533" stroke-linecap="round"/>
<path d="M2448.31 1249.97C2368.39 1275.49 2173.01 1281.72 2030.82 1102.49" stroke="black" stroke-width="97.3533" stroke-linecap="round"/>
<path d="M619.524 1562.08C614.041 1562.08 608.692 1563.78 604.212 1566.94C573 1588.97 539.797 1633.93 533.577 1698.48C527.32 1763.42 548.565 1845.08 620.409 1940.87C660.501 1994.33 670.6 2037.68 667.146 2073.69C663.611 2110.55 645.506 2144.01 620.962 2176.73C608.736 2193.03 595.385 2208.55 581.954 2224.06C581.262 2224.86 580.569 2225.66 579.875 2226.46C567.361 2240.9 554.637 2255.58 543.867 2269.94C522.831 2297.98 502.448 2333.38 513.598 2372.35C516.77 2413.42 534.674 2503.72 603.149 2593.73C674.024 2686.89 797.45 2777.56 1008.85 2814.01C1017.35 2815.47 1026.04 2812.72 1032.14 2806.62C1035.98 2802.77 1038.39 2798.16 1039.43 2796.14C1040.9 2793.26 1042.35 2789.95 1043.75 2786.44C1046.57 2779.35 1049.66 2770.22 1052.71 2759.52C1058.83 2738.07 1065.11 2709.3 1068.84 2676.33C1076.25 2610.84 1073.92 2525.98 1037.34 2448.99C1004.88 2380.64 1029.23 2330.25 1063.8 2258.7C1067.07 2251.94 1070.43 2244.98 1073.85 2237.81C1092.96 2197.61 1112.45 2151.77 1119.35 2097.19C1126.32 2042.18 1120.34 1979.87 1091.14 1906.3C1047.63 1796.66 1035.2 1722.49 1036.04 1675.28C1036.45 1651.72 1040.16 1635.61 1044.37 1625.32C1046.46 1620.21 1048.58 1616.75 1050.3 1614.55C1051.15 1613.46 1051.87 1612.73 1052.39 1612.25C1052.65 1612.02 1052.86 1611.86 1053 1611.75C1053.14 1611.65 1053.22 1611.61 1053.21 1611.61C1063.61 1605.59 1068.67 1593.34 1065.55 1581.74C1062.44 1570.14 1051.92 1562.08 1039.91 1562.08H619.524Z" fill="url(#paint1_linear_744_15633)" stroke="black" stroke-width="53.1018" stroke-linejoin="round"/>
<rect x="469.065" y="1442.6" width="690.323" height="159.305" rx="79.6527" fill="black"/>
<path d="M2336.48 1562.08C2341.96 1562.08 2347.31 1563.78 2351.79 1566.94C2383 1588.97 2416.2 1633.93 2422.42 1698.48C2428.68 1763.42 2407.43 1845.08 2335.59 1940.87C2295.5 1994.33 2285.4 2037.68 2288.85 2073.69C2292.39 2110.55 2310.49 2144.01 2335.04 2176.73C2347.26 2193.03 2360.61 2208.55 2374.04 2224.06C2374.74 2224.86 2375.43 2225.66 2376.12 2226.46C2388.64 2240.9 2401.36 2255.58 2412.13 2269.94C2433.17 2297.99 2453.55 2333.38 2442.4 2372.36C2439.19 2413.5 2421.06 2497.63 2352.22 2581.25C2281.11 2667.62 2157.79 2751.14 1947.15 2787.46C1938.65 2788.92 1929.96 2786.17 1923.86 2780.07C1920.59 2776.79 1918.33 2773.01 1917.15 2770.95C1915.64 2768.32 1914.16 2765.32 1912.72 2762.15C1909.83 2755.75 1906.68 2747.6 1903.58 2738.05C1897.35 2718.92 1890.98 2693.27 1887.2 2663.4C1879.66 2603.82 1882.22 2525.7 1918.66 2448.99C1951.12 2380.64 1926.77 2330.25 1892.2 2258.7C1888.93 2251.94 1885.57 2244.98 1882.15 2237.81C1863.04 2197.61 1843.55 2151.77 1836.64 2097.19C1829.68 2042.18 1835.66 1979.87 1864.86 1906.3C1908.36 1796.66 1920.8 1722.49 1919.96 1675.28C1919.55 1651.72 1915.84 1635.61 1911.63 1625.32C1909.54 1620.21 1907.42 1616.75 1905.7 1614.55C1904.85 1613.46 1904.13 1612.73 1903.61 1612.25C1903.35 1612.02 1903.14 1611.86 1903 1611.75C1902.86 1611.65 1902.78 1611.61 1902.78 1611.61C1892.39 1605.59 1887.33 1593.34 1890.45 1581.74C1893.56 1570.14 1904.08 1562.08 1916.09 1562.08H2336.48Z" fill="url(#paint2_linear_744_15633)" stroke="black" stroke-width="53.1018" stroke-linejoin="round"/>
<rect width="690.323" height="159.305" rx="79.6527" transform="matrix(-1 0 0 1 2486.93 1442.6)" fill="black"/>
<circle cx="1478" cy="1478" r="1398.35" stroke="black" stroke-width="159.305"/>
<path d="M1221.34 2131.46C1309.84 2072.45 1534.64 1989.85 1725.81 2131.46" stroke="black" stroke-width="115.054"/>
<defs>
<linearGradient id="paint0_linear_744_15633" x1="1478" y1="0" x2="1478" y2="2956" gradientUnits="userSpaceOnUse">
<stop stop-color="#FF5297"/>
<stop offset="1" stop-color="#C0004C"/>
</linearGradient>
<linearGradient id="paint1_linear_744_15633" x1="537.024" y1="2188.24" x2="1095.44" y2="2188.24" gradientUnits="userSpaceOnUse">
<stop stop-color="#479CFF"/>
<stop offset="1" stop-color="#C8E1FF"/>
</linearGradient>
<linearGradient id="paint2_linear_744_15633" x1="2418.97" y1="2174.96" x2="1860.56" y2="2174.96" gradientUnits="userSpaceOnUse">
<stop stop-color="#479CFF"/>
<stop offset="1" stop-color="#C8E1FF"/>
</linearGradient>
</defs>
</svg>
