<svg width="2783" height="3292" viewBox="0 0 2783 3292" fill="none" xmlns="http://www.w3.org/2000/svg">
<path d="M2783 1900.5C2783 2669 2160 3292 1391.5 3292C622.996 3292 0 2669 0 1900.5C0 1132 622.996 509 1391.5 509C2160 509 2783 1132 2783 1900.5Z" fill="url(#paint0_linear_751_15453)"/>
<circle cx="1391.5" cy="1900.5" r="1316.51" stroke="black" stroke-width="149.982"/>
<path d="M591.596 2000.49C652.891 1953.29 822.028 1884.55 1008.21 1987.16" stroke="black" stroke-width="141.65" stroke-linecap="round"/>
<path d="M1758.12 2000.49C1819.42 1953.29 1988.56 1884.55 2174.74 1987.16" stroke="black" stroke-width="141.65" stroke-linecap="round"/>
<path d="M1758.12 2000.49C1819.42 1953.29 1988.56 1884.55 2174.74 1987.16" stroke="black" stroke-width="141.65" stroke-linecap="round"/>
<path d="M2015.79 2375.44H763.915C735.462 2375.44 720.603 2409.08 739.696 2430.18C1342.16 3095.81 1715.56 2759.39 2039.55 2432.2C2060.38 2411.17 2045.39 2375.44 2015.79 2375.44Z" fill="white" stroke="black" stroke-width="91.6557" stroke-linecap="round"/>
<path d="M874.896 2567.09H1870.61" stroke="black" stroke-width="91.6557" stroke-linecap="round"/>
<mask id="path-8-outside-1_751_15453" maskUnits="userSpaceOnUse" x="740.9" y="0.0512695" width="1293" height="872" fill="black">
<rect fill="white" x="740.9" y="0.0512695" width="1293" height="872"/>
<path fill-rule="evenodd" clip-rule="evenodd" d="M824.9 788.134H1387.33L1949.77 788.134V84.0514L1668.55 538.164L1387.33 84.0518V84.0513L1387.33 84.0514L1106.12 538.164L824.9 84.0513V788.134Z"/>
</mask>
<path fill-rule="evenodd" clip-rule="evenodd" d="M824.9 788.134H1387.33L1949.77 788.134V84.0514L1668.55 538.164L1387.33 84.0518V84.0513L1387.33 84.0514L1106.12 538.164L824.9 84.0513V788.134Z" fill="#4235FB"/>
<path fill-rule="evenodd" clip-rule="evenodd" d="M824.9 788.134H1387.33L1949.77 788.134V84.0514L1668.55 538.164L1387.33 84.0518V84.0513L1387.33 84.0514L1106.12 538.164L824.9 84.0513V788.134Z" fill="url(#paint1_linear_751_15453)"/>
<path d="M1387.33 788.134L1387.33 704.81H1387.33V788.134ZM824.9 788.134H741.577C741.577 834.152 778.882 871.457 824.9 871.457V788.134ZM1949.77 788.134L1949.77 871.457C1971.86 871.457 1993.06 862.678 2008.68 847.052C2024.31 831.426 2033.09 810.232 2033.09 788.134H1949.77ZM1949.77 84.0514H2033.09C2033.09 46.8162 2008.38 14.1007 1972.57 3.90965C1936.76 -6.28144 1898.53 8.52591 1878.93 40.1826L1949.77 84.0514ZM1668.55 538.164L1597.71 582.032C1612.9 606.562 1639.7 621.487 1668.55 621.487C1697.4 621.487 1724.2 606.562 1739.39 582.032L1668.55 538.164ZM1387.33 84.0518H1304.01C1304.01 99.5512 1308.33 114.743 1316.49 127.921L1387.33 84.0518ZM1387.33 84.0513H1470.66C1470.66 53.5122 1453.95 25.42 1427.12 10.8389C1400.28 -3.74229 1367.62 -2.47583 1342 14.1395L1387.33 84.0513ZM1387.33 84.0514L1342 14.1396C1331.68 20.8316 1322.97 29.7254 1316.49 40.1826L1387.33 84.0514ZM1106.12 538.164L1035.28 582.032C1050.47 606.561 1077.27 621.487 1106.12 621.487C1134.97 621.487 1161.77 606.561 1176.96 582.032L1106.12 538.164ZM824.9 84.0513L895.74 40.1825C876.136 8.52576 837.909 -6.28159 802.095 3.9095C766.282 14.1006 741.577 46.8161 741.577 84.0513L824.9 84.0513ZM1387.33 704.81H824.9V871.457H1387.33V704.81ZM1387.33 871.457L1949.77 871.457L1949.77 704.81L1387.33 704.81L1387.33 871.457ZM2033.09 788.134V84.0514H1866.44V788.134H2033.09ZM1878.93 40.1826L1597.71 494.295L1739.39 582.032L2020.61 127.92L1878.93 40.1826ZM1739.39 494.295L1458.17 40.183L1316.49 127.921L1597.71 582.032L1739.39 494.295ZM1304.01 84.0513V84.0518H1470.66V84.0513H1304.01ZM1432.67 153.963L1432.67 153.963L1342 14.1395L1342 14.1396L1432.67 153.963ZM1176.96 582.032L1458.17 127.92L1316.49 40.1826L1035.28 494.295L1176.96 582.032ZM754.06 127.92L1035.28 582.032L1176.96 494.295L895.74 40.1825L754.06 127.92ZM908.224 788.134V84.0513H741.577V788.134H908.224Z" fill="black" mask="url(#path-8-outside-1_751_15453)"/>
<ellipse cx="399.836" cy="35.7068" rx="399.836" ry="35.7068" transform="matrix(-0.227918 0.97368 -0.943141 -0.332393 1993.87 276.39)" fill="white"/>
<ellipse cx="50.1959" cy="236.062" rx="50.1959" ry="236.062" transform="matrix(-0.227918 0.97368 -0.943141 -0.332393 2105.01 684.085)" fill="white"/>
<defs>
<linearGradient id="paint0_linear_751_15453" x1="1391.5" y1="509" x2="1391.5" y2="3292" gradientUnits="userSpaceOnUse">
<stop stop-color="#9B6BFF"/>
<stop offset="1" stop-color="#5122B5"/>
</linearGradient>
<linearGradient id="paint1_linear_751_15453" x1="1387.33" y1="84.0513" x2="1387.33" y2="788.134" gradientUnits="userSpaceOnUse">
<stop stop-color="#FFE78F"/>
<stop offset="0.76" stop-color="#E2B452"/>
<stop offset="1" stop-color="#BB7000"/>
</linearGradient>
</defs>
</svg>
