<svg width="1659" height="2037" viewBox="0 0 1659 2037" fill="none" xmlns="http://www.w3.org/2000/svg">
<path d="M1659 1380.7L875.495 2037V0.000244141L1075.07 359.107C1075.07 359.107 1166.23 1118.6 1210.58 1310.53C1242.94 1450.59 1659 1380.7 1659 1380.7Z" fill="#4235FB"/>
<path d="M1659 1380.7L875.495 2037V0.000244141L1075.07 359.107C1075.07 359.107 1166.23 1118.6 1210.58 1310.53C1242.94 1450.59 1659 1380.7 1659 1380.7Z" fill="url(#paint0_linear_690_3431)" fill-opacity="0.25"/>
<path d="M0 656.298L783.505 0.000244141V2037L583.933 1677.89C583.933 1677.89 492.77 918.405 448.421 726.468C416.059 586.41 0 656.298 0 656.298Z" fill="#FC3A87"/>
<path d="M0 656.298L783.505 0.000244141V2037L583.933 1677.89C583.933 1677.89 492.77 918.405 448.421 726.468C416.059 586.41 0 656.298 0 656.298Z" fill="url(#paint1_linear_690_3431)" fill-opacity="0.25"/>
<defs>
<linearGradient id="paint0_linear_690_3431" x1="1267.25" y1="0.000244141" x2="1267.25" y2="2037" gradientUnits="userSpaceOnUse">
<stop stop-opacity="0"/>
<stop offset="1"/>
</linearGradient>
<linearGradient id="paint1_linear_690_3431" x1="391.752" y1="0.000244141" x2="391.752" y2="2037" gradientUnits="userSpaceOnUse">
<stop stop-opacity="0"/>
<stop offset="1"/>
</linearGradient>
</defs>
</svg>
