<svg width="194" height="225" viewBox="0 0 194 225" fill="none" xmlns="http://www.w3.org/2000/svg">
<g filter="url(#filter0_d_342_6940)">
<path d="M132.568 127.919L88.0705 165.279V49.3223L99.4048 69.7646C99.4048 69.7646 104.582 112.999 107.101 123.925C108.939 131.898 132.568 127.919 132.568 127.919Z" fill="#4235FB"/>
<path d="M132.568 127.919L88.0705 165.279V49.3223L99.4048 69.7646C99.4048 69.7646 104.582 112.999 107.101 123.925C108.939 131.898 132.568 127.919 132.568 127.919Z" fill="url(#paint0_linear_342_6940)" fill-opacity="0.2"/>
<path d="M38.3477 86.6823L82.8455 49.3223V165.279L71.5112 144.837C71.5112 144.837 66.3337 101.603 63.815 90.6768C61.977 82.7039 38.3477 86.6823 38.3477 86.6823Z" fill="#FC3A87"/>
<path d="M38.3477 86.6823L82.8455 49.3223V165.279L71.5112 144.837C71.5112 144.837 66.3337 101.603 63.815 90.6768C61.977 82.7039 38.3477 86.6823 38.3477 86.6823Z" fill="url(#paint1_linear_342_6940)" fill-opacity="0.2"/>
</g>
<g filter="url(#filter1_d_342_6940)">
<g filter="url(#filter2_d_342_6940)">
<rect x="34.7715" y="29" width="111.315" height="157" rx="10" fill="url(#paint2_linear_342_6940)"/>
<rect x="36.7715" y="31" width="107.315" height="153" rx="8" stroke="white" stroke-width="4"/>
</g>
<path d="M137.34 127.919L92.842 165.279V49.3223L104.176 69.7646C104.176 69.7646 109.354 112.999 111.873 123.925C113.71 131.898 137.34 127.919 137.34 127.919Z" fill="#4235FB"/>
<path d="M137.34 127.919L92.842 165.279V49.3223L104.176 69.7646C104.176 69.7646 109.354 112.999 111.873 123.925C113.71 131.898 137.34 127.919 137.34 127.919Z" fill="url(#paint3_linear_342_6940)" fill-opacity="0.2"/>
<path d="M43.1191 86.6823L87.617 49.3223V165.279L76.2827 144.837C76.2827 144.837 71.1052 101.603 68.5865 90.6768C66.7485 82.7039 43.1191 86.6823 43.1191 86.6823Z" fill="#FC3A87"/>
<path d="M43.1191 86.6823L87.617 49.3223V165.279L76.2827 144.837C76.2827 144.837 71.1052 101.603 68.5865 90.6768C66.7485 82.7039 43.1191 86.6823 43.1191 86.6823Z" fill="url(#paint4_linear_342_6940)" fill-opacity="0.2"/>
</g>
<g filter="url(#filter3_d_342_6940)">
<g filter="url(#filter4_d_342_6940)">
<rect x="37.5527" y="29" width="111.315" height="157" rx="10" fill="url(#paint5_linear_342_6940)"/>
<rect x="39.5527" y="31" width="107.315" height="153" rx="8" stroke="white" stroke-width="4"/>
</g>
<path d="M140.121 127.919L95.6232 165.279V49.3223L106.958 69.7646C106.958 69.7646 112.135 112.999 114.654 123.925C116.492 131.898 140.121 127.919 140.121 127.919Z" fill="#4235FB"/>
<path d="M140.121 127.919L95.6232 165.279V49.3223L106.958 69.7646C106.958 69.7646 112.135 112.999 114.654 123.925C116.492 131.898 140.121 127.919 140.121 127.919Z" fill="url(#paint6_linear_342_6940)" fill-opacity="0.2"/>
<path d="M45.9004 86.6823L90.3983 49.3223V165.279L79.0639 144.837C79.0639 144.837 73.8865 101.603 71.3677 90.6768C69.5298 82.7039 45.9004 86.6823 45.9004 86.6823Z" fill="#FC3A87"/>
<path d="M45.9004 86.6823L90.3983 49.3223V165.279L79.0639 144.837C79.0639 144.837 73.8865 101.603 71.3677 90.6768C69.5298 82.7039 45.9004 86.6823 45.9004 86.6823Z" fill="url(#paint7_linear_342_6940)" fill-opacity="0.2"/>
</g>
<g filter="url(#filter5_d_342_6940)">
<g filter="url(#filter6_d_342_6940)">
<rect x="40.3359" y="29" width="111.315" height="157" rx="10" fill="url(#paint8_linear_342_6940)"/>
<rect x="42.3359" y="31" width="107.315" height="153" rx="8" stroke="white" stroke-width="4"/>
</g>
<path d="M142.904 127.919L98.4064 165.279V49.3223L109.741 69.7646C109.741 69.7646 114.918 112.999 117.437 123.925C119.275 131.898 142.904 127.919 142.904 127.919Z" fill="#4235FB"/>
<path d="M142.904 127.919L98.4064 165.279V49.3223L109.741 69.7646C109.741 69.7646 114.918 112.999 117.437 123.925C119.275 131.898 142.904 127.919 142.904 127.919Z" fill="url(#paint9_linear_342_6940)" fill-opacity="0.2"/>
<path d="M48.6836 86.6823L93.1815 49.3223V165.279L81.8471 144.837C81.8471 144.837 76.6697 101.603 74.1509 90.6768C72.313 82.7039 48.6836 86.6823 48.6836 86.6823Z" fill="#FC3A87"/>
<path d="M48.6836 86.6823L93.1815 49.3223V165.279L81.8471 144.837C81.8471 144.837 76.6697 101.603 74.1509 90.6768C72.313 82.7039 48.6836 86.6823 48.6836 86.6823Z" fill="url(#paint10_linear_342_6940)" fill-opacity="0.2"/>
</g>
<g filter="url(#filter7_d_342_6940)">
<g filter="url(#filter8_d_342_6940)">
<rect x="43.1191" y="29" width="111.315" height="157" rx="10" fill="url(#paint11_linear_342_6940)"/>
<rect x="45.1191" y="31" width="107.315" height="153" rx="8" stroke="white" stroke-width="4"/>
</g>
<path d="M145.688 127.919L101.19 165.279V49.3223L112.524 69.7646C112.524 69.7646 117.701 112.999 120.22 123.925C122.058 131.898 145.688 127.919 145.688 127.919Z" fill="#4235FB"/>
<path d="M145.688 127.919L101.19 165.279V49.3223L112.524 69.7646C112.524 69.7646 117.701 112.999 120.22 123.925C122.058 131.898 145.688 127.919 145.688 127.919Z" fill="url(#paint12_linear_342_6940)" fill-opacity="0.2"/>
<path d="M51.4668 86.6823L95.9647 49.3223V165.279L84.6303 144.837C84.6303 144.837 79.4529 101.603 76.9341 90.6768C75.0962 82.7039 51.4668 86.6823 51.4668 86.6823Z" fill="#FC3A87"/>
<path d="M51.4668 86.6823L95.9647 49.3223V165.279L84.6303 144.837C84.6303 144.837 79.4529 101.603 76.9341 90.6768C75.0962 82.7039 51.4668 86.6823 51.4668 86.6823Z" fill="url(#paint13_linear_342_6940)" fill-opacity="0.2"/>
</g>
<g filter="url(#filter9_d_342_6940)">
<g filter="url(#filter10_d_342_6940)">
<rect x="45.9023" y="29" width="111.315" height="157" rx="10" fill="url(#paint14_linear_342_6940)"/>
<rect x="47.9023" y="31" width="107.315" height="153" rx="8" stroke="white" stroke-width="4"/>
</g>
<path d="M148.471 127.919L103.973 165.279V49.3223L115.307 69.7646C115.307 69.7646 120.485 112.999 123.003 123.925C124.841 131.898 148.471 127.919 148.471 127.919Z" fill="#4235FB"/>
<path d="M148.471 127.919L103.973 165.279V49.3223L115.307 69.7646C115.307 69.7646 120.485 112.999 123.003 123.925C124.841 131.898 148.471 127.919 148.471 127.919Z" fill="url(#paint15_linear_342_6940)" fill-opacity="0.2"/>
<path d="M54.25 86.6823L98.7479 49.3223V165.279L87.4135 144.837C87.4135 144.837 82.2361 101.603 79.7173 90.6768C77.8794 82.7039 54.25 86.6823 54.25 86.6823Z" fill="#FC3A87"/>
<path d="M54.25 86.6823L98.7479 49.3223V165.279L87.4135 144.837C87.4135 144.837 82.2361 101.603 79.7173 90.6768C77.8794 82.7039 54.25 86.6823 54.25 86.6823Z" fill="url(#paint16_linear_342_6940)" fill-opacity="0.2"/>
</g>
<g filter="url(#filter11_d_342_6940)">
<g filter="url(#filter12_d_342_6940)">
<rect x="48.6855" y="29" width="111.315" height="157" rx="10" fill="url(#paint17_linear_342_6940)"/>
<rect x="51.1855" y="31.5" width="106.315" height="152" rx="7.5" stroke="white" stroke-width="5"/>
</g>
<path d="M151.254 127.919L106.756 165.279V49.3223L118.09 69.7646C118.09 69.7646 123.268 112.999 125.787 123.925C127.625 131.898 151.254 127.919 151.254 127.919Z" fill="#4235FB"/>
<path d="M151.254 127.919L106.756 165.279V49.3223L118.09 69.7646C118.09 69.7646 123.268 112.999 125.787 123.925C127.625 131.898 151.254 127.919 151.254 127.919Z" fill="url(#paint18_linear_342_6940)" fill-opacity="0.2"/>
<path d="M57.0332 86.6823L101.531 49.3223V165.279L90.1967 144.837C90.1967 144.837 85.0193 101.603 82.5005 90.6768C80.6626 82.7039 57.0332 86.6823 57.0332 86.6823Z" fill="#FC3A87"/>
<path d="M57.0332 86.6823L101.531 49.3223V165.279L90.1967 144.837C90.1967 144.837 85.0193 101.603 82.5005 90.6768C80.6626 82.7039 57.0332 86.6823 57.0332 86.6823Z" fill="url(#paint19_linear_342_6940)" fill-opacity="0.2"/>
</g>
<defs>
<filter id="filter0_d_342_6940" x="26" y="29" width="119.314" height="165" filterUnits="userSpaceOnUse" color-interpolation-filters="sRGB">
<feFlood flood-opacity="0" result="BackgroundImageFix"/>
<feColorMatrix in="SourceAlpha" type="matrix" values="0 0 0 0 0 0 0 0 0 0 0 0 0 0 0 0 0 0 127 0" result="hardAlpha"/>
<feOffset dy="4"/>
<feGaussianBlur stdDeviation="2"/>
<feComposite in2="hardAlpha" operator="out"/>
<feColorMatrix type="matrix" values="0 0 0 0 0 0 0 0 0 0 0 0 0 0 0 0 0 0 0.25 0"/>
<feBlend mode="normal" in2="BackgroundImageFix" result="effect1_dropShadow_342_6940"/>
<feBlend mode="normal" in="SourceGraphic" in2="effect1_dropShadow_342_6940" result="shape"/>
</filter>
<filter id="filter1_d_342_6940" x="30.7715" y="29" width="119.314" height="165" filterUnits="userSpaceOnUse" color-interpolation-filters="sRGB">
<feFlood flood-opacity="0" result="BackgroundImageFix"/>
<feColorMatrix in="SourceAlpha" type="matrix" values="0 0 0 0 0 0 0 0 0 0 0 0 0 0 0 0 0 0 127 0" result="hardAlpha"/>
<feOffset dy="4"/>
<feGaussianBlur stdDeviation="2"/>
<feComposite in2="hardAlpha" operator="out"/>
<feColorMatrix type="matrix" values="0 0 0 0 0 0 0 0 0 0 0 0 0 0 0 0 0 0 0.25 0"/>
<feBlend mode="normal" in2="BackgroundImageFix" result="effect1_dropShadow_342_6940"/>
<feBlend mode="normal" in="SourceGraphic" in2="effect1_dropShadow_342_6940" result="shape"/>
</filter>
<filter id="filter2_d_342_6940" x="0.771484" y="0" width="179.314" height="225" filterUnits="userSpaceOnUse" color-interpolation-filters="sRGB">
<feFlood flood-opacity="0" result="BackgroundImageFix"/>
<feColorMatrix in="SourceAlpha" type="matrix" values="0 0 0 0 0 0 0 0 0 0 0 0 0 0 0 0 0 0 127 0" result="hardAlpha"/>
<feOffset dy="5"/>
<feGaussianBlur stdDeviation="17"/>
<feColorMatrix type="matrix" values="0 0 0 0 0 0 0 0 0 0 0 0 0 0 0 0 0 0 0.1 0"/>
<feBlend mode="normal" in2="BackgroundImageFix" result="effect1_dropShadow_342_6940"/>
<feBlend mode="normal" in="SourceGraphic" in2="effect1_dropShadow_342_6940" result="shape"/>
</filter>
<filter id="filter3_d_342_6940" x="33.5527" y="29" width="119.314" height="165" filterUnits="userSpaceOnUse" color-interpolation-filters="sRGB">
<feFlood flood-opacity="0" result="BackgroundImageFix"/>
<feColorMatrix in="SourceAlpha" type="matrix" values="0 0 0 0 0 0 0 0 0 0 0 0 0 0 0 0 0 0 127 0" result="hardAlpha"/>
<feOffset dy="4"/>
<feGaussianBlur stdDeviation="2"/>
<feComposite in2="hardAlpha" operator="out"/>
<feColorMatrix type="matrix" values="0 0 0 0 0 0 0 0 0 0 0 0 0 0 0 0 0 0 0.25 0"/>
<feBlend mode="normal" in2="BackgroundImageFix" result="effect1_dropShadow_342_6940"/>
<feBlend mode="normal" in="SourceGraphic" in2="effect1_dropShadow_342_6940" result="shape"/>
</filter>
<filter id="filter4_d_342_6940" x="3.55273" y="0" width="179.314" height="225" filterUnits="userSpaceOnUse" color-interpolation-filters="sRGB">
<feFlood flood-opacity="0" result="BackgroundImageFix"/>
<feColorMatrix in="SourceAlpha" type="matrix" values="0 0 0 0 0 0 0 0 0 0 0 0 0 0 0 0 0 0 127 0" result="hardAlpha"/>
<feOffset dy="5"/>
<feGaussianBlur stdDeviation="17"/>
<feColorMatrix type="matrix" values="0 0 0 0 0 0 0 0 0 0 0 0 0 0 0 0 0 0 0.1 0"/>
<feBlend mode="normal" in2="BackgroundImageFix" result="effect1_dropShadow_342_6940"/>
<feBlend mode="normal" in="SourceGraphic" in2="effect1_dropShadow_342_6940" result="shape"/>
</filter>
<filter id="filter5_d_342_6940" x="36.3359" y="29" width="119.314" height="165" filterUnits="userSpaceOnUse" color-interpolation-filters="sRGB">
<feFlood flood-opacity="0" result="BackgroundImageFix"/>
<feColorMatrix in="SourceAlpha" type="matrix" values="0 0 0 0 0 0 0 0 0 0 0 0 0 0 0 0 0 0 127 0" result="hardAlpha"/>
<feOffset dy="4"/>
<feGaussianBlur stdDeviation="2"/>
<feComposite in2="hardAlpha" operator="out"/>
<feColorMatrix type="matrix" values="0 0 0 0 0 0 0 0 0 0 0 0 0 0 0 0 0 0 0.25 0"/>
<feBlend mode="normal" in2="BackgroundImageFix" result="effect1_dropShadow_342_6940"/>
<feBlend mode="normal" in="SourceGraphic" in2="effect1_dropShadow_342_6940" result="shape"/>
</filter>
<filter id="filter6_d_342_6940" x="6.33594" y="0" width="179.314" height="225" filterUnits="userSpaceOnUse" color-interpolation-filters="sRGB">
<feFlood flood-opacity="0" result="BackgroundImageFix"/>
<feColorMatrix in="SourceAlpha" type="matrix" values="0 0 0 0 0 0 0 0 0 0 0 0 0 0 0 0 0 0 127 0" result="hardAlpha"/>
<feOffset dy="5"/>
<feGaussianBlur stdDeviation="17"/>
<feColorMatrix type="matrix" values="0 0 0 0 0 0 0 0 0 0 0 0 0 0 0 0 0 0 0.1 0"/>
<feBlend mode="normal" in2="BackgroundImageFix" result="effect1_dropShadow_342_6940"/>
<feBlend mode="normal" in="SourceGraphic" in2="effect1_dropShadow_342_6940" result="shape"/>
</filter>
<filter id="filter7_d_342_6940" x="39.1191" y="29" width="119.314" height="165" filterUnits="userSpaceOnUse" color-interpolation-filters="sRGB">
<feFlood flood-opacity="0" result="BackgroundImageFix"/>
<feColorMatrix in="SourceAlpha" type="matrix" values="0 0 0 0 0 0 0 0 0 0 0 0 0 0 0 0 0 0 127 0" result="hardAlpha"/>
<feOffset dy="4"/>
<feGaussianBlur stdDeviation="2"/>
<feComposite in2="hardAlpha" operator="out"/>
<feColorMatrix type="matrix" values="0 0 0 0 0 0 0 0 0 0 0 0 0 0 0 0 0 0 0.25 0"/>
<feBlend mode="normal" in2="BackgroundImageFix" result="effect1_dropShadow_342_6940"/>
<feBlend mode="normal" in="SourceGraphic" in2="effect1_dropShadow_342_6940" result="shape"/>
</filter>
<filter id="filter8_d_342_6940" x="9.11914" y="0" width="179.314" height="225" filterUnits="userSpaceOnUse" color-interpolation-filters="sRGB">
<feFlood flood-opacity="0" result="BackgroundImageFix"/>
<feColorMatrix in="SourceAlpha" type="matrix" values="0 0 0 0 0 0 0 0 0 0 0 0 0 0 0 0 0 0 127 0" result="hardAlpha"/>
<feOffset dy="5"/>
<feGaussianBlur stdDeviation="17"/>
<feColorMatrix type="matrix" values="0 0 0 0 0 0 0 0 0 0 0 0 0 0 0 0 0 0 0.1 0"/>
<feBlend mode="normal" in2="BackgroundImageFix" result="effect1_dropShadow_342_6940"/>
<feBlend mode="normal" in="SourceGraphic" in2="effect1_dropShadow_342_6940" result="shape"/>
</filter>
<filter id="filter9_d_342_6940" x="41.9023" y="29" width="119.314" height="165" filterUnits="userSpaceOnUse" color-interpolation-filters="sRGB">
<feFlood flood-opacity="0" result="BackgroundImageFix"/>
<feColorMatrix in="SourceAlpha" type="matrix" values="0 0 0 0 0 0 0 0 0 0 0 0 0 0 0 0 0 0 127 0" result="hardAlpha"/>
<feOffset dy="4"/>
<feGaussianBlur stdDeviation="2"/>
<feComposite in2="hardAlpha" operator="out"/>
<feColorMatrix type="matrix" values="0 0 0 0 0 0 0 0 0 0 0 0 0 0 0 0 0 0 0.25 0"/>
<feBlend mode="normal" in2="BackgroundImageFix" result="effect1_dropShadow_342_6940"/>
<feBlend mode="normal" in="SourceGraphic" in2="effect1_dropShadow_342_6940" result="shape"/>
</filter>
<filter id="filter10_d_342_6940" x="11.9023" y="0" width="179.314" height="225" filterUnits="userSpaceOnUse" color-interpolation-filters="sRGB">
<feFlood flood-opacity="0" result="BackgroundImageFix"/>
<feColorMatrix in="SourceAlpha" type="matrix" values="0 0 0 0 0 0 0 0 0 0 0 0 0 0 0 0 0 0 127 0" result="hardAlpha"/>
<feOffset dy="5"/>
<feGaussianBlur stdDeviation="17"/>
<feColorMatrix type="matrix" values="0 0 0 0 0 0 0 0 0 0 0 0 0 0 0 0 0 0 0.1 0"/>
<feBlend mode="normal" in2="BackgroundImageFix" result="effect1_dropShadow_342_6940"/>
<feBlend mode="normal" in="SourceGraphic" in2="effect1_dropShadow_342_6940" result="shape"/>
</filter>
<filter id="filter11_d_342_6940" x="44.6855" y="29" width="119.314" height="165" filterUnits="userSpaceOnUse" color-interpolation-filters="sRGB">
<feFlood flood-opacity="0" result="BackgroundImageFix"/>
<feColorMatrix in="SourceAlpha" type="matrix" values="0 0 0 0 0 0 0 0 0 0 0 0 0 0 0 0 0 0 127 0" result="hardAlpha"/>
<feOffset dy="4"/>
<feGaussianBlur stdDeviation="2"/>
<feComposite in2="hardAlpha" operator="out"/>
<feColorMatrix type="matrix" values="0 0 0 0 0 0 0 0 0 0 0 0 0 0 0 0 0 0 0.25 0"/>
<feBlend mode="normal" in2="BackgroundImageFix" result="effect1_dropShadow_342_6940"/>
<feBlend mode="normal" in="SourceGraphic" in2="effect1_dropShadow_342_6940" result="shape"/>
</filter>
<filter id="filter12_d_342_6940" x="14.6855" y="0" width="179.314" height="225" filterUnits="userSpaceOnUse" color-interpolation-filters="sRGB">
<feFlood flood-opacity="0" result="BackgroundImageFix"/>
<feColorMatrix in="SourceAlpha" type="matrix" values="0 0 0 0 0 0 0 0 0 0 0 0 0 0 0 0 0 0 127 0" result="hardAlpha"/>
<feOffset dy="5"/>
<feGaussianBlur stdDeviation="17"/>
<feColorMatrix type="matrix" values="0 0 0 0 0 0 0 0 0 0 0 0 0 0 0 0 0 0 0.1 0"/>
<feBlend mode="normal" in2="BackgroundImageFix" result="effect1_dropShadow_342_6940"/>
<feBlend mode="normal" in="SourceGraphic" in2="effect1_dropShadow_342_6940" result="shape"/>
</filter>
<linearGradient id="paint0_linear_342_6940" x1="110.319" y1="49.3223" x2="110.319" y2="165.279" gradientUnits="userSpaceOnUse">
<stop stop-opacity="0"/>
<stop offset="1"/>
</linearGradient>
<linearGradient id="paint1_linear_342_6940" x1="60.5966" y1="49.3223" x2="60.5966" y2="165.279" gradientUnits="userSpaceOnUse">
<stop stop-opacity="0"/>
<stop offset="1"/>
</linearGradient>
<linearGradient id="paint2_linear_342_6940" x1="90.429" y1="29" x2="90.429" y2="186" gradientUnits="userSpaceOnUse">
<stop stop-color="#4E4E4E"/>
<stop offset="1"/>
</linearGradient>
<linearGradient id="paint3_linear_342_6940" x1="115.091" y1="49.3223" x2="115.091" y2="165.279" gradientUnits="userSpaceOnUse">
<stop stop-opacity="0"/>
<stop offset="1"/>
</linearGradient>
<linearGradient id="paint4_linear_342_6940" x1="65.3681" y1="49.3223" x2="65.3681" y2="165.279" gradientUnits="userSpaceOnUse">
<stop stop-opacity="0"/>
<stop offset="1"/>
</linearGradient>
<linearGradient id="paint5_linear_342_6940" x1="93.2102" y1="29" x2="93.2102" y2="186" gradientUnits="userSpaceOnUse">
<stop stop-color="#4E4E4E"/>
<stop offset="1"/>
</linearGradient>
<linearGradient id="paint6_linear_342_6940" x1="117.872" y1="49.3223" x2="117.872" y2="165.279" gradientUnits="userSpaceOnUse">
<stop stop-opacity="0"/>
<stop offset="1"/>
</linearGradient>
<linearGradient id="paint7_linear_342_6940" x1="68.1493" y1="49.3223" x2="68.1493" y2="165.279" gradientUnits="userSpaceOnUse">
<stop stop-opacity="0"/>
<stop offset="1"/>
</linearGradient>
<linearGradient id="paint8_linear_342_6940" x1="95.9934" y1="29" x2="95.9934" y2="186" gradientUnits="userSpaceOnUse">
<stop stop-color="#4E4E4E"/>
<stop offset="1"/>
</linearGradient>
<linearGradient id="paint9_linear_342_6940" x1="120.655" y1="49.3223" x2="120.655" y2="165.279" gradientUnits="userSpaceOnUse">
<stop stop-opacity="0"/>
<stop offset="1"/>
</linearGradient>
<linearGradient id="paint10_linear_342_6940" x1="70.9325" y1="49.3223" x2="70.9325" y2="165.279" gradientUnits="userSpaceOnUse">
<stop stop-opacity="0"/>
<stop offset="1"/>
</linearGradient>
<linearGradient id="paint11_linear_342_6940" x1="98.7766" y1="29" x2="98.7766" y2="186" gradientUnits="userSpaceOnUse">
<stop stop-color="#4E4E4E"/>
<stop offset="1"/>
</linearGradient>
<linearGradient id="paint12_linear_342_6940" x1="123.439" y1="49.3223" x2="123.439" y2="165.279" gradientUnits="userSpaceOnUse">
<stop stop-opacity="0"/>
<stop offset="1"/>
</linearGradient>
<linearGradient id="paint13_linear_342_6940" x1="73.7157" y1="49.3223" x2="73.7157" y2="165.279" gradientUnits="userSpaceOnUse">
<stop stop-opacity="0"/>
<stop offset="1"/>
</linearGradient>
<linearGradient id="paint14_linear_342_6940" x1="101.56" y1="29" x2="101.56" y2="186" gradientUnits="userSpaceOnUse">
<stop stop-color="#4E4E4E"/>
<stop offset="1"/>
</linearGradient>
<linearGradient id="paint15_linear_342_6940" x1="126.222" y1="49.3223" x2="126.222" y2="165.279" gradientUnits="userSpaceOnUse">
<stop stop-opacity="0"/>
<stop offset="1"/>
</linearGradient>
<linearGradient id="paint16_linear_342_6940" x1="76.4989" y1="49.3223" x2="76.4989" y2="165.279" gradientUnits="userSpaceOnUse">
<stop stop-opacity="0"/>
<stop offset="1"/>
</linearGradient>
<linearGradient id="paint17_linear_342_6940" x1="104.343" y1="29" x2="104.343" y2="186" gradientUnits="userSpaceOnUse">
<stop stop-color="#4E4E4E"/>
<stop offset="1"/>
</linearGradient>
<linearGradient id="paint18_linear_342_6940" x1="129.005" y1="49.3223" x2="129.005" y2="165.279" gradientUnits="userSpaceOnUse">
<stop stop-opacity="0"/>
<stop offset="1"/>
</linearGradient>
<linearGradient id="paint19_linear_342_6940" x1="79.2821" y1="49.3223" x2="79.2821" y2="165.279" gradientUnits="userSpaceOnUse">
<stop stop-opacity="0"/>
<stop offset="1"/>
</linearGradient>
</defs>
</svg>
