<svg width="96" height="117" viewBox="0 0 96 117" fill="none" xmlns="http://www.w3.org/2000/svg">
<path d="M96 79.3039L50.6616 117V0L62.21 20.6261C62.21 20.6261 67.4853 64.2492 70.0516 75.2736C71.9243 83.3181 96 79.3039 96 79.3039Z" fill="#4235FB"/>
<path d="M96 79.3039L50.6616 117V0L62.21 20.6261C62.21 20.6261 67.4853 64.2492 70.0516 75.2736C71.9243 83.3181 96 79.3039 96 79.3039Z" fill="url(#paint0_linear_552_10393)" fill-opacity="0.2"/>
<path d="M0 37.6961L45.3384 0V117L33.79 96.3739C33.79 96.3739 28.5147 52.7508 25.9484 41.7264C24.0757 33.6819 0 37.6961 0 37.6961Z" fill="#FC3A87"/>
<path d="M0 37.6961L45.3384 0V117L33.79 96.3739C33.79 96.3739 28.5147 52.7508 25.9484 41.7264C24.0757 33.6819 0 37.6961 0 37.6961Z" fill="url(#paint1_linear_552_10393)" fill-opacity="0.2"/>
<defs>
<linearGradient id="paint0_linear_552_10393" x1="73.3308" y1="0" x2="73.3308" y2="117" gradientUnits="userSpaceOnUse">
<stop stop-opacity="0"/>
<stop offset="1"/>
</linearGradient>
<linearGradient id="paint1_linear_552_10393" x1="22.6692" y1="0" x2="22.6692" y2="117" gradientUnits="userSpaceOnUse">
<stop stop-opacity="0"/>
<stop offset="1"/>
</linearGradient>
</defs>
</svg>
