<svg width="35" height="35" viewBox="0 0 334 334" fill="none" xmlns="http://www.w3.org/2000/svg">
<path d="M334 167C334 259.232 259.232 334 167 334C74.7684 334 0 259.232 0 167C0 74.7684 74.7684 0 167 0C259.232 0 334 74.7684 334 167Z" fill="#655BFF"/>
<path d="M70.0001 176.5C69.3806 176.5 68.7762 176.692 68.2701 177.049C64.7434 179.539 60.9917 184.618 60.2889 191.912C59.582 199.249 61.9825 208.476 70.1001 219.3C74.6302 225.34 75.7712 230.239 75.381 234.307C74.9815 238.472 72.9359 242.252 70.1626 245.95C68.7812 247.792 67.2726 249.546 65.7551 251.297C65.6769 251.388 65.5986 251.478 65.5202 251.568C64.1062 253.2 62.6685 254.859 61.4517 256.481C59.0748 259.65 56.7716 263.649 58.0316 268.053C58.3899 272.693 60.4129 282.896 68.1499 293.066C76.1581 303.593 90.1041 313.838 113.99 317.956C114.951 318.122 115.932 317.811 116.621 317.121C117.056 316.687 117.328 316.166 117.445 315.937C117.612 315.612 117.776 315.238 117.934 314.841C118.252 314.041 118.601 313.009 118.946 311.799C119.637 309.376 120.347 306.125 120.768 302.4C121.606 295 121.342 285.412 117.21 276.713C113.541 268.99 116.293 263.296 120.199 255.212C120.569 254.448 120.949 253.662 121.334 252.851C123.494 248.309 125.696 243.13 126.476 236.963C127.263 230.747 126.587 223.707 123.288 215.393C118.373 203.006 116.967 194.625 117.062 189.291C117.109 186.629 117.528 184.808 118.003 183.646C118.24 183.068 118.48 182.678 118.674 182.429C118.77 182.306 118.851 182.223 118.91 182.169C118.94 182.143 118.963 182.125 118.979 182.113C118.995 182.101 119.003 182.096 119.003 182.096C120.178 181.416 120.749 180.033 120.397 178.722C120.045 177.411 118.857 176.5 117.5 176.5H70.0001Z" fill="#479CFF" stroke="black" stroke-width="6" stroke-linejoin="round"/>
<rect x="53" y="163" width="78" height="18" rx="9" fill="black"/>
<path d="M264 176.5C264.619 176.5 265.224 176.692 265.73 177.049C269.257 179.539 273.008 184.618 273.711 191.912C274.418 199.249 272.018 208.476 263.9 219.3C259.37 225.34 258.229 230.239 258.619 234.307C259.018 238.472 261.064 242.252 263.837 245.95C265.219 247.792 266.727 249.546 268.245 251.297C268.323 251.388 268.401 251.478 268.48 251.568C269.894 253.2 271.331 254.859 272.548 256.481C274.925 259.651 277.229 263.65 275.968 268.054C275.606 272.702 273.557 282.208 265.779 291.657C257.744 301.416 243.811 310.853 220.01 314.956C219.049 315.122 218.068 314.811 217.379 314.121C217.009 313.751 216.753 313.324 216.62 313.091C216.45 312.794 216.282 312.455 216.12 312.096C215.793 311.374 215.438 310.453 215.086 309.374C214.383 307.212 213.663 304.314 213.236 300.939C212.384 294.207 212.673 285.38 216.79 276.713C220.459 268.99 217.707 263.296 213.801 255.212C213.431 254.448 213.051 253.662 212.666 252.851C210.506 248.309 208.304 243.13 207.524 236.963C206.737 230.747 207.413 223.707 210.712 215.393C215.627 203.006 217.033 194.625 216.938 189.291C216.891 186.629 216.472 184.808 215.997 183.646C215.76 183.068 215.52 182.678 215.326 182.429C215.23 182.306 215.149 182.223 215.09 182.169C215.06 182.143 215.037 182.125 215.021 182.113C215.005 182.101 214.997 182.096 214.997 182.096C213.822 181.416 213.251 180.033 213.603 178.722C213.955 177.411 215.143 176.5 216.5 176.5H264Z" fill="#479CFF" stroke="black" stroke-width="6" stroke-linejoin="round"/>
<rect width="78" height="18" rx="9" transform="matrix(-1 0 0 1 281 163)" fill="black"/>
<circle cx="167" cy="167" r="158" stroke="black" stroke-width="18"/>
<path d="M138 240.834C148 234.168 173.4 224.834 195 240.834" stroke="black" stroke-width="13"/>
</svg>
