<svg width="126" height="150" viewBox="0 0 126 150" fill="none" xmlns="http://www.w3.org/2000/svg">
<path d="M126 87C126 121.794 97.7939 150 63 150C28.2061 150 0 121.794 0 87C0 52.2061 28.2061 24 63 24C97.7939 24 126 52.2061 126 87Z" fill="#FC3A87"/>
<circle cx="63" cy="87" r="59.6048" stroke="black" stroke-width="6.79042"/>
<mask id="path-3-outside-1_719_6374" maskUnits="userSpaceOnUse" x="33.3477" y="0.760254" width="59" height="40" fill="black">
<rect fill="white" x="33.3477" y="0.760254" width="59" height="40"/>
<path fill-rule="evenodd" clip-rule="evenodd" d="M62.8117 36.6375V4.76025L50.0797 25.3201L37.3477 4.76025V36.6375H62.8117ZM62.8119 36.6375V4.76025L75.5439 25.3201L88.2759 4.76025V36.6375H62.8119Z"/>
</mask>
<path fill-rule="evenodd" clip-rule="evenodd" d="M62.8117 36.6375V4.76025L50.0797 25.3201L37.3477 4.76025V36.6375H62.8117ZM62.8119 36.6375V4.76025L75.5439 25.3201L88.2759 4.76025V36.6375H62.8119Z" fill="#FFC700"/>
<path d="M62.8117 4.76025H66.5842C66.5842 3.07443 65.4657 1.59324 63.8442 1.13184C62.2228 0.670444 60.492 1.34084 59.6045 2.7741L62.8117 4.76025ZM62.8117 36.6375V40.41C64.8952 40.41 66.5842 38.721 66.5842 36.6375H62.8117ZM50.0797 25.3201L46.8724 27.3063C47.5601 28.4168 48.7734 29.0926 50.0797 29.0926C51.3859 29.0926 52.5992 28.4168 53.287 27.3063L50.0797 25.3201ZM37.3477 4.76025L40.5549 2.7741C39.6674 1.34084 37.9366 0.670444 36.3152 1.13184C34.6937 1.59324 33.5752 3.07443 33.5752 4.76025H37.3477ZM37.3477 36.6375H33.5752C33.5752 38.721 35.2642 40.41 37.3477 40.41V36.6375ZM62.8119 4.76025L66.0191 2.7741C65.1316 1.34084 63.4008 0.670444 61.7794 1.13184C60.1579 1.59324 59.0394 3.07443 59.0394 4.76025H62.8119ZM62.8119 36.6375H59.0394C59.0394 38.721 60.7284 40.41 62.8119 40.41V36.6375ZM75.5439 25.3201L72.3366 27.3063C73.0244 28.4168 74.2377 29.0926 75.5439 29.0926C76.8502 29.0926 78.0634 28.4168 78.7512 27.3063L75.5439 25.3201ZM88.2759 4.76025H92.0484C92.0484 3.07443 90.9299 1.59324 89.3084 1.13184C87.687 0.670444 85.9562 1.34084 85.0687 2.7741L88.2759 4.76025ZM88.2759 36.6375V40.41C90.3594 40.41 92.0484 38.721 92.0484 36.6375H88.2759ZM59.0393 4.76025V36.6375H66.5842V4.76025H59.0393ZM53.287 27.3063L66.019 6.74641L59.6045 2.7741L46.8724 23.334L53.287 27.3063ZM34.1404 6.74641L46.8724 27.3063L53.287 23.334L40.5549 2.7741L34.1404 6.74641ZM41.1201 36.6375V4.76025H33.5752V36.6375H41.1201ZM62.8117 32.865H37.3477V40.41H62.8117V32.865ZM59.0394 4.76025V36.6375H66.5843V4.76025H59.0394ZM78.7512 23.334L66.0191 2.7741L59.6046 6.74641L72.3366 27.3063L78.7512 23.334ZM85.0687 2.7741L72.3366 23.334L78.7512 27.3063L91.4832 6.74641L85.0687 2.7741ZM92.0484 36.6375V4.76025H84.5035V36.6375H92.0484ZM62.8119 40.41H88.2759V32.865H62.8119V40.41Z" fill="black" mask="url(#path-3-outside-1_719_6374)"/>
<path d="M26.7852 91.5268C29.5603 89.3899 37.2179 86.2777 45.6474 90.9234" stroke="black" stroke-width="6.41317" stroke-linecap="round"/>
<path d="M79.5996 91.5268C82.3747 89.3899 90.0324 86.2777 98.4619 90.9234" stroke="black" stroke-width="6.41317" stroke-linecap="round"/>
<path d="M79.5996 91.5268C82.3747 89.3899 90.0324 86.2777 98.4619 90.9234" stroke="black" stroke-width="6.41317" stroke-linecap="round"/>
<path d="M91.264 108.503H34.5853C33.2971 108.503 32.6244 110.026 33.4888 110.981C60.7653 141.118 77.6709 125.886 92.3397 111.073C93.2825 110.121 92.604 108.503 91.264 108.503Z" fill="white" stroke="black" stroke-width="4.1497" stroke-linecap="round"/>
<path d="M39.6113 117.18H84.6922" stroke="black" stroke-width="4.1497" stroke-linecap="round"/>
<ellipse cx="18.1025" cy="1.61662" rx="18.1025" ry="1.61662" transform="matrix(-0.227918 0.97368 -0.943141 -0.332393 90.2715 13.4688)" fill="white"/>
<ellipse cx="2.27261" cy="10.6877" rx="2.27261" ry="10.6877" transform="matrix(-0.227918 0.97368 -0.943141 -0.332393 95.3047 31.9268)" fill="white"/>
<mask id="path-12-outside-2_719_6374" maskUnits="userSpaceOnUse" x="33.3477" y="0.760254" width="59" height="40" fill="black">
<rect fill="white" x="33.3477" y="0.760254" width="59" height="40"/>
<path fill-rule="evenodd" clip-rule="evenodd" d="M62.8117 36.6375V4.76025L50.0797 25.3201L37.3477 4.76025V36.6375H62.8117ZM62.8119 36.6375V4.76025L75.5439 25.3201L88.2759 4.76025V36.6375H62.8119Z"/>
</mask>
<path fill-rule="evenodd" clip-rule="evenodd" d="M62.8117 36.6375V4.76025L50.0797 25.3201L37.3477 4.76025V36.6375H62.8117ZM62.8119 36.6375V4.76025L75.5439 25.3201L88.2759 4.76025V36.6375H62.8119Z" fill="#FFC700"/>
<path d="M62.8117 4.76025H66.5842C66.5842 3.07443 65.4657 1.59324 63.8442 1.13184C62.2228 0.670444 60.492 1.34084 59.6045 2.7741L62.8117 4.76025ZM62.8117 36.6375V40.41C64.8952 40.41 66.5842 38.721 66.5842 36.6375H62.8117ZM50.0797 25.3201L46.8724 27.3063C47.5601 28.4168 48.7734 29.0926 50.0797 29.0926C51.3859 29.0926 52.5992 28.4168 53.287 27.3063L50.0797 25.3201ZM37.3477 4.76025L40.5549 2.7741C39.6674 1.34084 37.9366 0.670444 36.3152 1.13184C34.6937 1.59324 33.5752 3.07443 33.5752 4.76025H37.3477ZM37.3477 36.6375H33.5752C33.5752 38.721 35.2642 40.41 37.3477 40.41V36.6375ZM62.8119 4.76025L66.0191 2.7741C65.1316 1.34084 63.4008 0.670444 61.7794 1.13184C60.1579 1.59324 59.0394 3.07443 59.0394 4.76025H62.8119ZM62.8119 36.6375H59.0394C59.0394 38.721 60.7284 40.41 62.8119 40.41V36.6375ZM75.5439 25.3201L72.3366 27.3063C73.0244 28.4168 74.2377 29.0926 75.5439 29.0926C76.8502 29.0926 78.0634 28.4168 78.7512 27.3063L75.5439 25.3201ZM88.2759 4.76025H92.0484C92.0484 3.07443 90.9299 1.59324 89.3084 1.13184C87.687 0.670444 85.9562 1.34084 85.0687 2.7741L88.2759 4.76025ZM88.2759 36.6375V40.41C90.3594 40.41 92.0484 38.721 92.0484 36.6375H88.2759ZM59.0393 4.76025V36.6375H66.5842V4.76025H59.0393ZM53.287 27.3063L66.019 6.74641L59.6045 2.7741L46.8724 23.334L53.287 27.3063ZM34.1404 6.74641L46.8724 27.3063L53.287 23.334L40.5549 2.7741L34.1404 6.74641ZM41.1201 36.6375V4.76025H33.5752V36.6375H41.1201ZM62.8117 32.865H37.3477V40.41H62.8117V32.865ZM59.0394 4.76025V36.6375H66.5843V4.76025H59.0394ZM78.7512 23.334L66.0191 2.7741L59.6046 6.74641L72.3366 27.3063L78.7512 23.334ZM85.0687 2.7741L72.3366 23.334L78.7512 27.3063L91.4832 6.74641L85.0687 2.7741ZM92.0484 36.6375V4.76025H84.5035V36.6375H92.0484ZM62.8119 40.41H88.2759V32.865H62.8119V40.41Z" fill="black" mask="url(#path-12-outside-2_719_6374)"/>
<ellipse cx="18.1025" cy="1.61662" rx="18.1025" ry="1.61662" transform="matrix(-0.227918 0.97368 -0.943141 -0.332393 90.2715 13.4688)" fill="white"/>
<ellipse cx="2.27261" cy="10.6877" rx="2.27261" ry="10.6877" transform="matrix(-0.227918 0.97368 -0.943141 -0.332393 95.3047 31.9268)" fill="white"/>
</svg>
