<svg width="334" height="334" viewBox="0 0 334 334" fill="none" xmlns="http://www.w3.org/2000/svg">
<path d="M334 167C334 259.232 259.232 334 167 334C74.7684 334 0 259.232 0 167C0 74.7684 74.7684 0 167 0C259.232 0 334 74.7684 334 167Z" fill="url(#paint0_linear_297_7952)"/>
<path d="M72.5001 217.5C56.9001 196.7 64.3334 183.5 70.0001 179.5H117.5C114.333 181.333 110.5 191.3 120.5 216.5C133 248 105 258 114.5 278C122.1 294 115.667 313.833 114.5 315C68.1 307 61.5001 275.5 61.0001 267.5C57.0001 255.5 92.0001 243.5 72.5001 217.5Z" fill="#479CFF" stroke="black" stroke-width="4"/>
<rect x="53" y="163" width="78" height="18" rx="9" fill="black"/>
<path d="M261.5 217.5C277.1 196.7 269.667 183.5 264 179.5H216.5C219.667 181.333 223.5 191.3 213.5 216.5C201 248 229 258 219.5 278C211.9 294 218.333 310.833 219.5 312C265.9 304 272.5 275.5 273 267.5C277 255.5 242 243.5 261.5 217.5Z" fill="#479CFF" stroke="black" stroke-width="4"/>
<rect width="78" height="18" rx="9" transform="matrix(-1 0 0 1 281 163)" fill="black"/>
<circle cx="167" cy="167" r="158" stroke="black" stroke-width="18"/>
<path d="M138 240.834C148 234.168 173.4 224.834 195 240.834" stroke="black" stroke-width="13"/>
<defs>
<linearGradient id="paint0_linear_297_7952" x1="167" y1="0" x2="167" y2="334" gradientUnits="userSpaceOnUse">
<stop stop-color="#FC3A87"/>
<stop offset="1" stop-color="#6C0132"/>
</linearGradient>
</defs>
</svg>
